<?xml version="1.0" encoding="utf-8"?>
<!-- Generator: Adobe Illustrator 23.0.3, SVG Export Plug-In . SVG Version: 6.00 Build 0)  -->
<svg version="1.1"
	 id="Layer_1" xmlns:cc="http://creativecommons.org/ns#" xmlns:dc="http://purl.org/dc/elements/1.1/" xmlns:inkscape="http://www.inkscape.org/namespaces/inkscape" xmlns:rdf="http://www.w3.org/1999/02/22-rdf-syntax-ns#" xmlns:sodipodi="http://sodipodi.sourceforge.net/DTD/sodipodi-0.dtd" xmlns:svg="http://www.w3.org/2000/svg"
	 xmlns="http://www.w3.org/2000/svg" xmlns:xlink="http://www.w3.org/1999/xlink" x="0px" y="0px" viewBox="0 0 94.8 81.7"
	 style="enable-background:new 0 0 94.8 81.7;" xml:space="preserve">
<path d="M47.3,1.9c-3.8,0-7,3.2-7,7c0,3.1,2.1,5.8,5,6.7v12.1l-17.9,9c-0.7,0.3-1.1,1-1.1,1.8v22.3l-10.6,5.7
	c-1.3-1.5-3.2-2.5-5.4-2.5c-3.8,0-7,3.2-7,7s3.2,7,7,7s7-3.2,7-7c0-0.3,0-0.5,0-0.8L28.7,64l17.6,10.7c0.6,0.4,1.4,0.4,2.1,0L66,64
	l11.4,6.1c0,0.3,0,0.5,0,0.8c0,3.8,3.2,7,7,7s7-3.2,7-7s-3.2-7-7-7c-2.1,0-4.1,1-5.4,2.5l-10.6-5.7V38.4c0-0.8-0.4-1.4-1.1-1.8
	l-17.9-9V15.6c2.9-0.9,5-3.5,5-6.7C54.3,5.1,51.2,1.9,47.3,1.9z M47.3,5.9c1.7,0,3,1.3,3,3s-1.3,3-3,3s-3-1.3-3-3S45.7,5.9,47.3,5.9
	z M47.3,31.2L62,38.5l-14.7,8.2l-14.7-8.2L47.3,31.2z M30.3,41.8l15,8.3v19.2l-15-9.1V41.8z M64.3,41.8v18.5l-15,9.1V50.1L64.3,41.8
	z M10.3,67.9c1.7,0,3,1.3,3,3s-1.3,3-3,3s-3-1.3-3-3S8.7,67.9,10.3,67.9z M84.3,67.9c1.7,0,3,1.3,3,3s-1.3,3-3,3s-3-1.3-3-3
	S82.7,67.9,84.3,67.9z"/>
</svg>
