<?xml version="1.0" encoding="utf-8"?>
<!-- Generator: Adobe Illustrator 23.0.0, SVG Export Plug-In . SVG Version: 6.00 Build 0)  -->
<svg version="1.1" id="Layer_1" xmlns="http://www.w3.org/2000/svg" xmlns:xlink="http://www.w3.org/1999/xlink" x="0px" y="0px"
	 viewBox="0 0 459.1 118.7" style="enable-background:new 0 0 459.1 118.7;" xml:space="preserve">
<g>
	<path d="M128.5,33c-1.1-10.7,4.4-20.5,10.6-28.8c-3.3,5.3-6.2,11.4-5.7,17.8c0.1,5.9,4.4,11,9.9,12.7c4.3,1.3,5.8,5.8,7.7,9.4
		c3.6,6,9.4,10.5,15.8,13.2c4.1,1.8,8.8,4.2,13.3,2.2c2.8-1.3,5.8-2.4,8.5-4.1c-0.2-0.5-0.5-1.5-0.7-2.1c-4.3-0.9-8.9,0.8-12.9-1.2
		c-1.6-3-0.5-6.9-2.5-9.7c-5.4-3.3-12.6-3.2-16.9-8.2c-3.3-3.1-3-9.1,0.9-11.6c-1.6,3-3.6,6.8-1.1,9.8c4.1,5.9,12,5.8,17.7,9.2
		c2.8,2.5,0.6,7.1,3.2,9.8c3.7,1.3,7.8-0.2,11.6,0.8c1.7,0.5,1.8,2.4,2.2,3.8c2.5-0.2,1.8-3.5,1.2-5c-1.7-3.3-5.9-2.4-8.7-3.8
		c-2.9-1.6-2.1-5.3-3.3-8c-2.4-4.3-8.1-3.8-11.7-6.6c-2.8-1.4-4.6-4.1-4.1-7.3c0.3-0.3,0.9-1,1.1-1.4c-1.8,4.9,2.9,8.2,6.9,9.7
		c2.7,1.2,6.1,1.5,7.9,4.1c1.6,2.1,1.4,4.8,2.1,7.2c2.2,3.4,7.4,1.3,9.8,4.6c2,1.5,1.2,4.2,1.4,6.4c1.5,1.7,2.6,3.8,2,6
		c-0.9,3.9,0.9,8-1,11.7c-2.4,5.4-1.5,11.5-0.3,17c-1.1-1.7-2.2-3.5-3.3-5.2c-2.7,0.9-5.5,1.1-7.6,3.2c0.7-2.5,2.7-4.3,3.3-6.7
		c-1.3-6.3-7-10.1-12.5-12.5c-3.1-1.3-6.5-1-9.6,0c-2.1,5.1-0.5,10.7,1.3,15.6c1.2,3.5,3.4,6.6,5.7,9.4c2.5-0.7,4.9-1.5,7.2-2.5
		c-1.4,1.7-2.6,3.5-3.8,5.4c1.4-0.4,2.9-0.8,4.3-1.2c0.4,2-1.8,2.9-3.2,3.9c-10.4,6-22.2,10.6-34.4,9.9c-3.3,0-6.3-1.5-9.2-2.8
		c-5.6-2.7-11.1-5.8-16.2-9.3c6.9,3.3,13.8,6.6,21.3,8.2c5.6,1.2,11.3-0.5,16.9-0.2c-5.1,2.6-8-1-10.9-3.7
		c-3.3-3.1-5.3-7.3-6.6-11.6c3.4,5.5,8.3,10.6,14.6,12.5c3.6,0.9,7.8,0.9,10.6-1.9c1.9-1.8,0.6-4.4-0.5-6.2
		c-5.2-6.6-11.8-12.1-19.5-15.4c-4.2-1.4-8.3-3.2-12.6-4.3c-7-1.8-12.6-6.8-19.3-9.5c7.2,1.1,15.3,3.3,21.8-1.2
		c-1.6-3.7-5.7-5.1-9.4-5.3c-5.9-0.6-11.8-0.3-17.7-0.4C94.6,59,86.3,64.4,77,64.6c-6.3,0.2-12.5,1.8-18.8,1.1
		c-3.1-0.4-6.2-0.1-9.2-0.4c-0.4-0.5-1.1-1.4-1.5-1.9c9.3-1.1,18.9-0.4,27.8-3.6c5.8-1.9,11.7-3.9,16.6-7.7c4.2-2.3,7.6-6.9,13.1-5
		c-5.1-0.3-10.1-1.3-15.2-0.9c-9.7,0.1-19.2,3.2-29,3c-9.5,0.5-19.3-1.8-27.5-6.7c-3.1-2.4-7.4-4.7-7.8-9.1c4.8,4.8,11.2,7.5,17.7,9
		c8.5,1.7,17.3,0.6,25.8-0.6c-5-0.1-10-0.5-15-0.2c-4,0.3-6.9-3.1-8.7-6.3c2.6,1.6,5.2,3.9,8.5,3.8c5.2,0.3,11.5-2.2,15.4,2.6
		c13.4-2.3,27-4.1,40.6-4.9c-7.5,1.3-14.5-2.5-21.9-1.7c-5.1,0.3-9.9,2.1-15,2.1c-6.3,0.1-12.8,0.9-18.7-1.6c-3.3-1.5-7-2.9-9-6
		c3.4,1.2,6.5,3.1,10.2,3.6c6.5,0.9,13.1,0.1,19.7-0.2c-3.8-3-9.3-0.6-12.5-4.3c4.3,1.8,10.2-1,13.1,3.6c4.2-0.9,8.3-2.3,12.5-2.7
		c6.8-0.4,13.4,1.1,20.2,1.6c0.5-0.3,1.5-0.9,2-1.2c0.9-3.8-0.5-7.5-0.6-11.2c-0.3-3.3,0.5-6.5,1.2-9.7
		C113.1,18.9,117.5,30.7,128.5,33 M141.7,48c1.6,3.3,3.8,6.3,5.4,9.7c1.9-0.7,3.7-1.5,5.5-2.3C149.1,52.6,145.7,49.7,141.7,48z"/>
</g>
<path d="M361.1,42.5c5.7-1.1,11.3-2.6,16.9-4.3c0.5,2-0.8,3.7-1.5,5.4c-5.7,12.1-11.3,24.2-16.9,36.3c-1.8,3.9-3.8,7.7-5.2,11.8
	c1.7,0.3,3.4,0.5,5.1,0.8c-0.4,1-0.8,2-1.1,2.9c-5.7,1.4-11.2,3.5-17,4.9l-0.6-0.7c0.3-0.8,0.9-2.3,1.3-3
	c-5.4,3.1-12.2,4.9-18.2,2.5c-4.2-1.8-5.4-6.9-4.6-11c1.7-9.2,7.4-17.3,14.7-23c5.3-4.2,11.8-7.6,18.7-7.6c2.4,0,4.6,1.1,6.6,2.3
	c1.9-4.7,4.5-9.1,6.1-13.9c-1.7-0.1-3.4-0.2-5.2-0.3C360.5,44.7,360.8,43.6,361.1,42.5 M345.8,63.1c-7.2,3.3-11.6,10.7-14.2,17.9
	c-1.3,3.7-2.4,8.7,1.1,11.6c4,2.5,9.8,0.7,12.5-3c2.9-5.6,5.3-11.4,8-17c1.1-2.5,2.7-5.3,1.4-8C352.8,61.6,348.7,61.8,345.8,63.1z"
	/>
<path d="M234.4,41.7c0.5-0.3,1.6-1,2.1-1.3c16.1,0,32.3,0,48.4,0c-2.1,4.3-3.8,8.7-5.9,13c-1,1.8-3.2,1.4-4.9,1.6
	c0.8-2.4,1.2-5,1-7.5c-4.2-2.3-9-1.5-13.6-1.6c-3.2,0.1-6.4-0.3-9.6,0.2c-3.3,6.4-6.1,13.1-9.3,19.6c5.6-0.2,11.1,0.2,16.7-0.3
	c4.4-0.3,6.4-4.7,8.5-7.9c1.3,0,2.5,0.1,3.8,0.1c-2.6,6.9-6.1,13.5-9.1,20.2c-0.8,1.9-3.2,1.8-4.9,2.1c0.7-2.5,1.2-5,1.3-7.6
	c-6.1-2.1-12.6-0.8-18.9-1.2c-3.3,7.5-7.1,14.7-10.1,22.3c8,0.5,16.3,1.4,24-1.4c4.7-2,8.4-5.8,11.9-9.5c1.2,0.1,2.4,0.3,3.5,0.6
	c0,1.2-0.8,2.1-1.5,3c-3.3,4.4-6.6,8.8-9.9,13.3c-16.5,0-33,0.1-49.5,0c-0.3-1.6,0.9-2.7,2-3.7c2.2-0.1,4.7,0.1,6.5-1.4
	c1.9-1.6,2.9-4,4-6.1c5.7-12.3,11.4-24.5,17.1-36.8c0.9-1.9,1.5-4,2-6c-1.8-0.8-3.8-1.2-5.8-1.3C234.3,43.2,234.3,42.5,234.4,41.7z"
	/>
<path d="M282.5,61.8c5.5-1.2,10.9-2.8,16.3-4.4c0.3,2.5-1,6.3-4.3,5.6c3.5,0.6,6-2.2,9-3.3c4.1-1.8,9.4-3.4,13.4-0.4
	c3.1,2.9,1.6,7.6,0.3,11c-3.1,6.9-6.4,13.7-9.6,20.6c-0.7,1.4-1,2.9-1.2,4.4c1.2,0.7,3.8,0.1,3.8,2c-0.6,1.5-2.1,2.3-3.7,2.1
	c-5.7-0.1-11.3,0.1-17-0.1c-1.5-0.5-0.3-2.3,0.6-2.8c2.1-0.9,4.9-0.7,6.1-3c3.2-5,5.2-10.7,7.9-16.1c1.6-3.9,4.5-7.7,3.9-12.2
	c-4.8-1.9-9.5,0.9-13.2,3.7c-2.4,4.1-4.1,8.7-6.2,12.9c-1.9,4.4-4.5,8.6-5.7,13.3c1.5,0.4,3.1,0.8,4.6,1.1c-0.1,1.6-1.3,3.2-3.1,3.1
	c-6.2,0.1-12.5,0-18.7,0c-0.6-3.5,3.9-3.4,6.1-4.3c3.1-2.9,4.2-7.2,6.1-10.8c2.8-6.4,6.3-12.5,8.5-19.2c-1.6-0.1-3.3-0.3-4.9-0.5
	C281.8,63.6,282.1,62.7,282.5,61.8z"/>
<path d="M392.9,58.4c4.6-1.3,10.1-1.3,14,1.8c3.8,4,1.8,9.9,0.5,14.5c-1.3,0.5-2.5,0.9-3.9,0.8c-8.1,0-16.3,0-24.4-0.1
	c-1.5,4-3.4,8.3-2,12.6c1.3,3.7,5.8,4.7,9.3,4.1c6.3-0.9,11.3-5.1,15.8-9.3c0.9,0.4,1.9,0.8,2.8,1.1c-6.3,7.7-14.6,14.5-24.7,16
	c-4.8,0.6-11.1,0.3-13.5-4.7c-2.3-5-0.1-10.7,2-15.4C373.4,69.8,382.2,61.4,392.9,58.4 M381.9,70.6c5.3,0,10.6,0,15.9,0
	c0.3-2.5,1.6-6.4-1.6-7.5C390.2,61.6,385.1,66.1,381.9,70.6z"/>
<path d="M417.1,62.6c5.9-1.6,11.8-3.5,17.6-5.2c-0.1,2.2-1.2,4.1-2,6.1c3.5-3.1,7.9-5.8,12.8-5.9c1.5-0.1,2.6,1,3.7,1.8
	c-0.2,4.2-3.2,8.7-7.8,8.9c-2.2,0.1-3.4-2-4.9-3.3c-3.2,1.9-6.8,3.9-8.2,7.6c-2.7,5.9-5.5,11.8-8.3,17.7c-0.8,1.5-1,3.2-1.2,4.8
	c2,0.4,3.9,0.8,5.9,1.2c-0.3,2-2.2,3.4-4.3,3.1c-6.8-0.2-13.7,0.4-20.4-0.4c0.3-0.7,1-2.1,1.3-2.8c2.5-0.7,6-0.4,7.6-2.9
	c2.2-3.9,3.8-8.2,5.9-12.2c2.2-5.2,5.3-10.1,6.6-15.6c-1.6,0.1-3.3,0.2-5,0.4c-0.1-0.4-0.3-1.2-0.3-1.6
	C416.3,63.8,416.8,63,417.1,62.6z"/>
</svg>
