<?xml version="1.0" encoding="UTF-8" ?>
<!DOCTYPE svg PUBLIC "-//W3C//DTD SVG 1.1//EN" "http://www.w3.org/Graphics/SVG/1.1/DTD/svg11.dtd">
<svg width="1694pt" height="271pt" viewBox="0 0 1694 271" version="1.1" xmlns="http://www.w3.org/2000/svg">
<g id="#000000ff">
<path fill="#000000" opacity="1.00" d=" M 152.38 0.62 C 157.37 8.13 161.53 16.15 166.12 23.91 C 213.68 106.27 261.31 188.60 308.78 271.00 L 0.00 271.00 L 0.00 263.89 C 1.53 261.15 3.24 258.52 4.85 255.82 C 54.09 170.79 103.03 85.59 152.38 0.62 M 152.39 15.83 C 140.18 36.94 127.81 57.96 115.88 79.23 C 140.28 79.48 164.70 79.48 189.10 79.23 C 179.78 62.52 169.98 46.08 160.49 29.46 C 157.85 24.88 155.28 20.26 152.39 15.83 M 111.19 87.28 C 90.97 121.82 71.21 156.63 51.01 191.17 C 64.49 215.18 78.46 238.91 92.20 262.77 C 132.31 262.73 172.42 262.92 212.53 262.67 C 226.02 238.65 240.12 214.98 253.68 191.00 C 233.84 156.36 213.83 121.81 193.80 87.28 C 166.26 87.28 138.72 87.29 111.19 87.28 M 258.20 198.87 C 245.68 220.08 233.56 241.52 221.18 262.81 C 245.82 262.71 270.45 262.87 295.09 262.73 C 282.90 241.39 270.67 220.06 258.20 198.87 M 46.38 199.46 C 34.10 220.48 21.91 241.55 9.89 262.73 C 34.30 262.81 58.72 262.82 83.13 262.73 C 74.72 247.60 65.86 232.72 57.27 217.70 C 53.66 211.61 50.46 205.26 46.38 199.46 Z" />
<path fill="#000000" opacity="1.00" d=" M 127.07 72.72 C 135.51 58.05 143.73 43.24 152.60 28.83 C 161.05 43.45 169.54 58.05 177.91 72.72 C 160.97 72.63 144.02 72.63 127.07 72.72 M 152.38 36.71 C 146.18 47.36 139.97 58.00 133.92 68.73 C 146.29 68.84 158.65 68.77 171.02 68.77 C 164.89 58.04 158.94 47.19 152.38 36.71 Z" />
<path fill="#000000" opacity="1.00" d=" M 379.50 50.72 C 381.49 49.04 383.33 47.14 385.58 45.80 C 387.64 45.12 389.85 45.34 391.98 45.28 C 402.61 45.49 413.25 45.27 423.88 45.44 C 425.70 50.43 425.77 55.76 425.57 61.00 C 425.46 98.68 425.62 136.37 425.48 174.05 C 425.57 176.30 425.59 179.01 427.57 180.51 C 430.23 182.57 433.79 182.47 436.98 182.53 C 455.34 182.34 473.69 182.57 492.05 182.39 C 494.50 182.51 497.20 182.25 499.41 183.55 C 500.83 184.51 500.39 186.46 500.60 187.92 C 500.57 200.49 500.52 213.05 500.56 225.62 C 490.39 226.28 480.19 225.91 470.00 226.00 C 449.00 226.00 428.00 226.00 407.00 226.00 C 397.79 225.97 388.57 226.20 379.38 225.61 C 379.27 176.40 379.36 127.20 379.33 78.00 C 379.41 68.91 379.14 59.81 379.50 50.72 Z" />
<path fill="#000000" opacity="1.00" d=" M 552.38 45.47 C 565.82 45.27 579.26 45.38 592.71 45.40 C 594.23 49.78 595.66 54.28 595.50 58.98 C 595.36 94.98 595.52 130.99 595.43 167.00 C 595.52 171.69 593.43 177.14 596.92 181.12 C 598.39 183.58 601.40 183.61 603.93 183.58 C 618.31 183.45 632.69 183.46 647.07 183.57 C 649.36 183.51 652.04 183.60 653.76 181.78 C 655.70 180.13 655.65 177.39 655.74 175.07 C 655.61 135.36 655.72 95.64 655.67 55.93 C 655.53 51.87 657.97 48.50 660.23 45.37 C 671.18 45.38 682.14 45.36 693.10 45.32 C 698.32 44.61 701.46 50.43 701.51 54.94 C 701.50 97.62 701.45 140.31 701.53 183.00 C 701.75 189.56 701.78 196.91 697.06 202.08 C 691.44 208.44 684.84 213.85 679.16 220.15 C 677.40 221.98 675.81 224.07 673.61 225.38 C 671.14 226.09 668.53 225.98 666.00 226.05 C 638.32 225.95 610.64 226.01 582.97 226.01 C 580.32 225.76 576.93 226.41 575.17 223.92 C 568.28 215.48 559.90 208.44 552.46 200.53 C 550.68 198.86 550.43 196.36 550.45 194.07 C 550.52 152.05 550.46 110.02 550.49 68.00 C 550.60 60.47 549.56 52.67 552.38 45.47 Z" />
<path fill="#000000" opacity="1.00" d=" M 770.79 45.89 C 773.09 45.11 775.58 45.36 777.98 45.29 C 788.93 45.49 799.87 45.23 810.82 45.49 C 812.58 50.47 812.68 55.78 812.47 61.00 C 812.37 96.33 812.49 131.67 812.41 167.00 C 812.48 171.26 811.95 175.61 812.97 179.80 C 815.43 182.63 819.56 182.43 822.98 182.53 C 841.34 182.36 859.70 182.55 878.06 182.39 C 880.80 182.49 884.22 182.34 886.05 184.82 C 887.17 188.42 886.59 192.29 886.70 196.00 C 886.38 205.89 887.35 215.84 885.92 225.67 C 862.96 226.41 839.98 225.80 817.00 226.00 C 800.61 225.87 784.22 226.28 767.83 225.76 C 765.60 218.71 766.50 211.26 766.40 204.00 C 766.36 154.31 766.45 104.63 766.35 54.94 C 766.15 51.41 767.76 47.81 770.79 45.89 Z" />
<path fill="#000000" opacity="1.00" d=" M 940.80 47.78 C 942.63 45.83 945.33 45.23 947.92 45.31 C 982.95 45.43 1017.98 45.35 1053.00 45.37 C 1057.53 45.45 1062.11 44.93 1066.61 45.66 C 1070.13 47.20 1072.46 51.12 1072.50 54.93 C 1072.70 62.28 1072.34 69.64 1072.55 76.99 C 1072.57 81.93 1073.19 87.58 1069.52 91.51 C 1061.03 101.35 1052.05 110.77 1043.85 120.87 C 1028.35 137.40 1013.90 154.88 998.54 171.54 C 995.00 175.84 989.54 179.58 989.19 185.61 C 990.91 186.64 992.98 186.53 994.93 186.58 C 1017.29 186.32 1039.65 186.63 1062.01 186.40 C 1065.20 186.52 1068.94 186.21 1071.46 188.56 C 1073.17 191.73 1072.39 195.55 1072.56 199.01 C 1072.13 207.99 1073.47 217.11 1071.36 225.95 C 1035.24 226.06 999.12 225.97 963.00 226.00 C 954.15 225.94 945.28 226.25 936.44 225.66 C 936.52 213.76 936.47 201.86 936.42 189.96 C 936.49 186.96 936.44 183.70 938.25 181.14 C 939.97 178.62 942.25 176.56 944.40 174.41 C 955.37 163.68 965.27 151.93 975.54 140.54 C 983.66 130.38 993.53 121.82 1001.94 111.92 C 1008.58 104.46 1015.12 96.89 1022.37 89.99 C 1022.24 89.32 1021.97 87.98 1021.84 87.31 C 999.23 87.32 976.62 87.28 954.00 87.35 C 949.57 87.27 944.93 87.86 940.69 86.27 C 938.96 85.56 938.48 83.60 938.20 81.95 C 936.90 74.68 938.62 67.31 937.86 60.01 C 937.70 55.85 937.18 50.73 940.80 47.78 Z" />
<path fill="#000000" opacity="1.00" d=" M 1139.51 54.94 C 1139.09 49.51 1144.83 45.17 1149.92 45.32 C 1183.31 45.41 1216.70 45.39 1250.08 45.33 C 1256.38 45.70 1262.08 49.29 1267.00 53.00 C 1273.00 58.99 1279.12 64.88 1284.95 71.04 C 1290.92 77.56 1289.35 86.92 1289.48 95.00 C 1289.22 102.79 1290.85 111.43 1286.37 118.37 C 1282.16 123.71 1276.35 127.99 1273.74 134.48 C 1272.37 138.32 1275.73 141.40 1278.02 144.00 C 1283.98 150.25 1289.85 157.85 1289.52 166.96 C 1289.29 175.25 1289.97 183.60 1289.11 191.86 C 1288.36 197.43 1285.00 202.22 1280.81 205.81 C 1274.06 211.69 1268.54 218.90 1261.43 224.38 C 1259.37 226.11 1256.55 225.98 1254.05 226.06 C 1216.27 225.85 1178.48 226.19 1140.71 225.89 C 1139.18 219.02 1139.48 211.97 1139.55 205.00 C 1139.53 154.98 1139.60 104.96 1139.51 54.94 M 1179.64 89.21 C 1179.17 95.46 1179.69 101.74 1179.45 108.01 C 1179.52 110.70 1179.11 113.54 1180.05 116.12 C 1181.80 118.64 1185.23 118.41 1187.95 118.51 C 1206.63 118.35 1225.32 118.46 1244.01 118.46 C 1245.77 118.30 1248.50 118.43 1249.02 116.23 C 1249.88 112.55 1249.38 108.73 1249.47 105.00 C 1249.22 98.46 1250.37 91.70 1248.04 85.41 C 1226.38 85.66 1204.71 85.36 1183.06 85.54 C 1180.88 85.25 1179.67 87.31 1179.64 89.21 M 1183.40 151.65 C 1182.44 151.80 1181.59 152.17 1180.85 152.77 C 1179.71 157.76 1180.45 162.93 1180.31 168.00 C 1180.49 173.83 1179.79 179.72 1180.69 185.51 C 1181.19 187.81 1184.14 187.35 1185.93 187.55 C 1204.97 187.46 1224.02 187.44 1243.06 187.55 C 1244.74 187.31 1247.04 187.89 1248.13 186.20 C 1249.19 181.55 1248.56 176.72 1248.68 172.00 C 1248.47 165.83 1249.17 159.61 1248.35 153.47 C 1247.72 150.68 1244.12 151.68 1242.06 151.38 C 1222.51 151.73 1202.92 151.12 1183.40 151.65 Z" />
<path fill="#000000" opacity="1.00" d=" M 1382.53 46.58 C 1384.39 45.28 1386.75 45.40 1388.92 45.32 C 1416.32 45.43 1443.72 45.35 1471.11 45.36 C 1476.14 44.86 1479.58 49.03 1482.99 52.03 C 1488.85 57.82 1494.81 63.53 1500.45 69.55 C 1503.27 72.68 1505.57 76.60 1505.47 80.96 C 1505.46 117.99 1505.39 155.03 1505.50 192.07 C 1505.57 195.20 1504.78 198.38 1502.76 200.82 C 1495.70 209.49 1486.05 215.87 1479.94 225.33 C 1471.00 226.43 1461.98 225.88 1453.00 226.00 C 1432.67 226.02 1412.33 225.97 1392.00 226.03 C 1387.30 225.63 1381.28 227.37 1377.92 223.10 C 1371.79 216.54 1365.41 210.22 1358.84 204.12 C 1355.99 201.49 1353.19 198.20 1353.52 194.06 C 1353.52 158.04 1353.59 122.02 1353.49 86.01 C 1353.66 81.74 1352.67 76.94 1355.25 73.19 C 1358.73 68.13 1363.54 64.20 1367.78 59.80 C 1372.38 55.07 1376.96 50.19 1382.53 46.58 M 1403.42 89.82 C 1401.14 90.10 1398.25 91.32 1398.60 94.08 C 1398.45 121.73 1398.65 149.40 1398.51 177.05 C 1398.67 179.22 1398.36 182.96 1401.25 183.37 C 1408.48 183.86 1415.74 183.31 1423.00 183.49 C 1433.84 183.72 1444.73 182.90 1455.53 184.15 C 1456.90 184.37 1458.82 184.13 1459.13 182.45 C 1459.90 178.35 1459.44 174.15 1459.51 170.00 C 1459.49 144.98 1459.46 119.95 1459.54 94.93 C 1459.49 92.93 1459.49 89.67 1456.70 89.74 C 1449.81 89.24 1442.89 89.78 1436.00 89.61 C 1425.14 89.81 1414.25 89.22 1403.42 89.82 Z" />
<path fill="#000000" opacity="1.00" d=" M 1558.18 47.20 C 1559.84 45.30 1562.59 45.44 1564.90 45.29 C 1604.30 45.44 1643.71 45.39 1683.11 45.31 C 1687.44 45.06 1690.80 48.07 1694.00 50.53 L 1694.00 86.53 C 1691.65 88.42 1689.08 90.39 1685.96 90.57 C 1678.98 91.07 1671.98 90.57 1665.00 90.62 C 1659.89 90.69 1654.62 90.14 1649.69 91.70 C 1646.25 92.71 1647.18 97.19 1646.69 99.95 C 1646.72 131.96 1646.72 163.98 1646.71 196.00 C 1646.59 205.90 1647.30 215.86 1645.87 225.70 C 1631.07 226.19 1616.24 226.20 1601.45 225.67 C 1601.59 183.42 1601.36 141.18 1601.57 98.94 C 1601.47 96.78 1601.38 94.56 1600.49 92.57 C 1597.97 91.02 1594.93 90.82 1592.07 90.66 C 1582.38 90.40 1572.68 91.01 1562.99 90.66 C 1560.61 90.52 1557.48 90.14 1556.66 87.47 C 1555.30 83.46 1555.65 79.15 1555.63 74.99 C 1555.81 68.63 1555.48 62.28 1555.68 55.92 C 1555.87 52.91 1556.13 49.59 1558.18 47.20 Z" />
<path fill="#000000" opacity="1.00" d=" M 151.26 102.04 C 151.86 102.05 153.06 102.07 153.66 102.08 C 155.68 105.58 157.07 111.18 162.01 111.25 C 166.71 110.97 168.54 105.57 172.67 103.99 C 174.55 107.66 173.96 112.85 177.58 115.44 C 182.48 118.08 186.44 112.58 190.98 111.61 C 192.56 115.76 189.72 121.25 193.48 124.50 C 197.55 127.60 202.50 124.07 206.68 123.00 C 207.46 127.56 204.05 131.96 205.60 136.36 C 208.38 141.47 215.02 137.86 219.33 140.05 C 217.98 144.24 213.20 147.96 215.08 152.69 C 217.22 156.86 222.76 156.41 226.63 157.68 C 225.28 161.82 220.67 163.85 219.57 168.01 C 218.87 173.46 225.12 175.13 228.81 177.32 C 228.78 177.88 228.72 179.00 228.69 179.56 C 225.29 181.54 220.22 182.82 219.45 187.30 C 218.95 192.44 225.59 194.15 226.42 198.80 C 222.49 200.66 216.05 199.95 214.67 205.09 C 214.22 209.61 218.01 213.14 219.51 217.17 C 214.89 218.06 208.19 215.45 205.48 220.58 C 204.26 224.82 206.78 229.07 207.28 233.28 C 202.47 232.90 196.04 228.42 192.31 233.36 C 190.60 237.13 191.74 241.49 191.14 245.50 C 187.20 244.00 183.83 240.27 179.42 240.49 C 174.02 241.72 174.61 248.36 172.79 252.41 C 168.13 251.42 166.36 244.67 161.04 245.52 C 156.17 246.62 155.48 252.70 151.77 255.48 C 149.30 251.67 147.83 244.88 142.02 245.48 C 137.87 246.57 135.79 251.16 131.70 252.58 C 130.36 248.53 130.85 242.29 125.93 240.67 C 121.41 239.74 118.06 243.85 114.07 245.22 C 112.00 241.19 114.92 235.84 111.62 232.34 C 107.61 228.98 102.58 232.85 98.17 233.12 C 96.73 230.67 98.96 227.97 99.31 225.46 C 100.53 222.62 99.43 218.83 96.38 217.73 C 92.80 216.84 89.06 217.43 85.41 217.17 C 86.83 212.54 92.46 207.78 89.12 202.83 C 85.94 199.98 81.15 200.13 77.63 197.73 C 80.36 194.71 84.84 192.41 85.33 188.00 C 85.36 183.06 79.82 181.54 76.28 179.60 C 76.20 179.00 76.04 177.80 75.96 177.20 C 79.45 175.14 84.93 173.81 85.32 168.99 C 85.21 164.26 80.29 161.86 77.56 158.61 C 81.72 156.03 89.19 156.86 90.27 150.93 C 90.07 146.66 86.79 143.29 85.49 139.30 C 89.74 138.79 94.98 140.63 98.47 137.45 C 101.64 133.72 98.55 128.89 97.31 125.00 C 97.87 124.40 98.42 123.80 98.98 123.21 C 103.03 124.43 108.25 127.63 111.95 123.99 C 114.57 120.39 112.96 115.54 113.37 111.41 C 118.17 112.61 122.95 118.47 127.96 114.93 C 130.76 111.84 130.83 107.31 132.29 103.56 C 135.66 105.95 138.04 109.91 142.08 111.21 C 147.44 111.84 149.21 105.76 151.26 102.04 M 150.47 112.24 C 147.63 113.78 148.58 119.21 152.06 118.98 C 154.59 119.60 156.89 116.60 155.97 114.24 C 155.45 111.94 152.34 110.91 150.47 112.24 M 141.38 123.54 C 123.67 126.86 108.19 139.54 101.10 156.05 C 94.44 171.29 95.12 189.54 102.86 204.27 C 108.33 214.62 117.07 223.26 127.60 228.43 C 142.30 235.82 160.34 236.09 175.32 229.32 C 188.81 223.31 199.64 211.69 204.76 197.85 C 209.50 185.26 209.40 170.96 204.63 158.39 C 199.77 145.50 189.93 134.59 177.62 128.41 C 166.54 122.74 153.55 121.21 141.38 123.54 M 106.42 130.37 C 104.36 130.93 103.74 133.58 104.57 135.35 C 105.58 138.50 111.01 137.87 111.57 134.62 C 112.21 131.76 109.17 129.11 106.42 130.37 M 195.40 130.36 C 193.12 131.59 192.70 134.78 194.42 136.67 C 196.55 138.00 200.33 137.59 200.61 134.59 C 201.53 131.61 198.08 129.18 195.40 130.36 M 87.41 175.17 C 85.07 176.39 85.23 180.41 87.59 181.56 C 89.95 183.05 93.60 180.89 93.06 178.06 C 93.17 175.26 89.62 173.68 87.41 175.17 M 213.47 175.24 C 210.63 176.78 211.58 182.22 215.05 181.97 C 217.27 182.55 219.39 180.20 219.16 178.05 C 219.13 175.35 215.63 173.70 213.47 175.24 M 106.44 219.42 C 102.22 220.79 104.35 227.79 108.67 226.64 C 113.81 225.85 111.29 217.36 106.44 219.42 M 195.45 219.42 C 193.05 220.71 192.53 224.52 195.00 226.01 C 197.29 227.73 200.92 225.78 200.76 222.92 C 200.98 220.19 197.81 218.52 195.45 219.42 M 150.50 238.30 C 147.90 239.84 148.57 243.95 151.30 244.98 C 153.05 245.16 155.64 244.92 155.93 242.75 C 157.48 239.60 153.27 236.20 150.50 238.30 Z" />
<path fill="#000000" opacity="1.00" d=" M 141.37 125.45 C 153.05 123.15 165.55 124.50 176.26 129.80 C 188.64 135.85 198.53 146.85 203.18 159.83 C 208.24 173.64 207.33 189.53 200.65 202.64 C 194.43 215.00 183.32 224.88 170.18 229.31 C 157.56 233.75 143.30 233.24 131.01 227.96 C 117.13 222.04 106.03 209.98 101.25 195.67 C 96.47 181.47 97.76 165.24 105.13 152.15 C 112.56 138.55 126.14 128.44 141.37 125.45 M 144.39 127.53 C 144.57 130.17 145.08 132.80 146.11 135.26 C 146.82 132.50 146.74 129.48 144.39 127.53 M 152.18 128.78 C 151.22 129.94 151.25 132.01 152.18 133.19 C 153.71 132.88 153.74 129.07 152.18 128.78 M 158.37 135.52 C 159.82 133.07 160.27 130.25 160.06 127.43 C 158.19 129.74 158.01 132.68 158.37 135.52 M 137.40 129.20 C 137.73 131.96 138.62 134.66 140.44 136.81 C 140.36 133.98 139.76 131.04 137.40 129.20 M 164.39 136.67 C 166.22 134.63 166.96 131.99 167.16 129.31 C 165.05 131.20 164.39 133.94 164.39 136.67 M 130.95 131.59 C 131.18 134.40 132.34 137.03 134.64 138.75 C 134.12 136.05 133.01 133.47 130.95 131.59 M 170.12 138.61 C 172.52 136.99 173.55 134.28 173.89 131.50 C 171.81 133.36 170.63 135.90 170.12 138.61 M 124.60 135.38 C 125.25 137.98 126.71 140.30 129.08 141.65 C 128.31 139.11 126.85 136.84 124.60 135.38 M 175.81 141.61 C 178.07 140.14 179.56 137.87 180.19 135.27 C 177.83 136.65 176.47 139.03 175.81 141.61 M 143.39 138.55 C 131.41 141.18 120.96 149.62 115.64 160.64 C 111.51 169.13 110.61 179.08 112.84 188.23 C 115.64 199.66 123.74 209.60 134.26 214.83 C 142.22 218.87 151.54 219.95 160.28 218.31 C 172.43 216.03 183.22 207.76 188.77 196.74 C 193.39 187.74 194.30 177.00 191.67 167.27 C 188.58 155.96 180.25 146.30 169.66 141.36 C 161.54 137.53 152.14 136.69 143.39 138.55 M 118.67 139.55 C 119.66 142.17 121.57 144.27 124.10 145.47 C 122.99 142.94 121.23 140.72 118.67 139.55 M 180.76 145.42 C 183.20 144.16 185.03 142.07 186.24 139.63 C 183.56 140.60 181.75 142.81 180.76 145.42 M 113.54 144.70 C 114.89 147.11 117.02 148.91 119.46 150.15 C 118.42 147.48 116.28 145.53 113.54 144.70 M 185.50 150.12 C 187.82 148.73 189.81 146.89 191.30 144.63 C 188.53 145.41 186.40 147.38 185.50 150.12 M 109.38 150.18 C 110.72 152.63 113.03 154.21 115.63 155.09 C 114.27 152.66 111.90 151.18 109.38 150.18 M 189.26 155.22 C 191.74 154.08 194.04 152.51 195.64 150.25 C 192.99 151.13 190.11 152.28 189.26 155.22 M 105.61 156.89 C 107.57 158.83 110.07 160.00 112.71 160.67 C 111.08 158.29 108.44 157.10 105.61 156.89 M 192.14 158.94 C 192.41 159.41 192.95 160.36 193.22 160.83 C 195.31 159.63 197.37 158.38 199.26 156.88 C 196.83 157.34 194.46 158.08 192.14 158.94 M 103.24 163.35 C 104.93 165.79 107.87 166.20 110.64 166.15 C 108.47 164.54 105.89 163.71 103.24 163.35 M 194.18 166.45 C 196.93 166.19 199.79 165.56 201.68 163.36 C 198.88 163.51 196.15 164.38 194.18 166.45 M 195.44 172.59 C 198.15 172.69 200.94 172.37 203.06 170.53 C 200.33 170.36 197.48 170.58 195.44 172.59 M 103.77 171.21 C 103.77 172.71 106.40 172.94 107.19 171.90 C 107.17 170.42 104.55 170.17 103.77 171.21 M 101.19 178.88 C 103.74 179.12 106.30 179.01 108.85 178.74 C 106.45 177.04 103.47 176.93 101.19 178.88 M 196.00 178.64 C 198.58 178.93 201.18 178.97 203.77 178.76 C 201.43 176.85 198.47 177.15 196.00 178.64 M 101.44 185.61 C 104.24 186.10 107.12 185.89 109.60 184.43 C 106.80 183.96 103.94 184.19 101.44 185.61 M 195.40 184.30 C 197.69 185.66 200.34 186.01 202.96 185.94 C 200.92 183.92 198.06 183.95 195.40 184.30 M 103.34 193.04 C 106.00 192.86 108.66 192.16 110.69 190.32 C 107.98 190.36 105.26 191.01 103.34 193.04 M 194.27 190.23 C 196.24 192.16 198.92 192.86 201.60 193.03 C 199.71 190.95 196.97 190.32 194.27 190.23 M 105.53 199.78 C 108.33 199.47 111.14 198.52 112.68 195.99 C 109.98 196.54 107.47 197.79 105.53 199.78 M 192.19 196.22 C 193.91 197.71 195.81 198.99 197.77 200.14 C 198.04 199.65 198.56 198.67 198.83 198.18 C 196.62 197.51 194.45 196.68 192.19 196.22 M 109.38 206.22 C 111.88 205.42 114.09 203.96 115.65 201.82 C 113.03 202.41 110.60 203.71 109.38 206.22 M 188.78 201.79 C 190.65 203.77 192.94 205.29 195.51 206.22 C 194.25 203.53 191.57 202.26 188.78 201.79 M 113.67 212.21 C 116.16 211.05 118.23 209.18 119.49 206.71 C 116.87 207.70 114.61 209.49 113.67 212.21 M 185.39 206.76 C 186.72 209.17 188.79 211.03 191.30 212.15 C 190.25 209.50 187.97 207.77 185.39 206.76 M 118.78 217.34 C 121.22 216.01 123.01 213.87 124.26 211.43 C 121.47 212.32 119.43 214.46 118.78 217.34 M 180.77 211.39 C 182.06 213.77 183.88 215.81 186.19 217.26 C 185.43 214.49 183.44 212.40 180.77 211.39 M 175.79 214.75 C 176.53 217.45 178.03 219.87 180.37 221.45 C 179.71 218.71 178.05 216.41 175.79 214.75 M 124.63 221.48 C 126.90 220.02 128.38 217.75 129.11 215.18 C 126.80 216.60 125.30 218.87 124.63 221.48 M 133.95 217.66 C 132.63 219.91 131.58 222.31 130.96 224.84 C 133.32 223.21 134.84 220.54 133.95 217.66 M 170.64 218.18 C 170.94 220.80 171.73 223.42 174.17 224.78 C 173.61 222.29 172.45 220.00 170.64 218.18 M 137.87 227.58 C 139.71 225.54 140.45 222.89 140.58 220.20 C 138.49 222.10 137.93 224.87 137.87 227.58 M 164.40 220.15 C 164.58 222.84 165.35 225.48 167.15 227.56 C 167.12 224.82 166.55 222.03 164.40 220.15 M 144.17 228.30 C 144.78 228.12 145.99 227.76 146.60 227.58 C 146.60 225.51 146.58 223.43 146.46 221.36 C 145.35 223.54 144.75 225.93 144.17 228.30 M 158.58 221.31 C 158.45 223.45 158.40 225.59 158.41 227.74 C 159.02 227.85 160.23 228.08 160.84 228.19 C 160.25 225.84 159.63 223.50 158.58 221.31 M 152.29 223.75 C 151.34 224.89 151.34 226.94 152.30 228.08 C 153.87 227.84 153.87 223.98 152.29 223.75 Z" />
<path fill="#000000" opacity="1.00" d=" M 144.34 140.29 C 152.29 138.65 160.76 139.44 168.18 142.76 C 177.76 146.95 185.49 155.21 188.99 165.07 C 192.79 175.54 191.87 187.65 186.34 197.34 C 179.16 210.50 163.89 218.62 148.94 217.04 C 134.84 216.01 121.90 206.40 116.53 193.37 C 110.68 179.68 113.51 162.66 123.87 151.87 C 129.26 145.99 136.53 141.90 144.34 140.29 M 151.35 153.54 C 153.30 156.63 156.83 158.27 158.96 161.22 C 159.43 163.66 157.44 165.58 156.37 167.57 C 153.73 166.55 151.08 164.98 148.15 165.40 C 145.71 165.50 142.45 166.72 141.08 163.87 C 139.86 160.87 141.43 157.48 140.72 154.35 C 139.15 150.95 133.96 149.30 131.16 152.17 C 129.38 154.19 128.93 158.55 132.17 159.39 C 133.95 159.50 135.71 159.10 137.46 158.83 C 135.42 158.33 133.38 157.89 131.34 157.44 C 131.90 155.92 132.32 154.31 133.26 152.97 C 135.22 152.75 137.25 153.42 138.36 155.13 C 138.49 158.82 135.99 162.64 137.98 166.16 C 140.17 170.23 141.16 174.97 140.59 179.56 C 138.95 181.00 135.54 182.20 134.38 179.63 C 132.15 176.59 130.76 171.28 126.04 171.75 C 121.41 171.67 119.39 178.48 123.36 180.88 C 126.24 182.10 128.41 179.54 130.25 177.76 C 131.22 179.74 131.96 181.92 133.48 183.58 C 137.28 184.81 141.37 183.54 145.28 183.72 C 143.69 185.32 142.25 187.49 139.88 187.92 C 136.65 188.38 133.37 187.50 130.16 188.11 C 127.03 188.80 124.03 191.57 124.46 195.00 C 124.56 198.80 129.82 201.16 132.68 198.71 C 134.73 196.78 133.41 193.91 132.89 191.64 C 132.49 193.86 132.13 196.10 131.70 198.32 C 130.09 197.86 128.46 197.45 126.98 196.66 C 126.39 195.10 126.39 192.96 127.90 191.93 C 130.66 189.77 134.24 191.14 137.37 191.36 C 141.06 191.93 144.52 190.19 147.89 188.95 C 147.01 191.75 145.44 194.67 146.22 197.67 C 147.64 200.20 150.33 201.61 152.33 203.63 C 153.41 204.75 155.24 206.04 153.95 207.73 C 152.95 210.93 148.42 210.51 147.18 207.70 C 147.44 205.43 149.66 204.13 150.92 202.40 C 148.81 203.51 145.51 204.71 146.22 207.73 C 147.15 212.23 153.86 212.58 155.64 208.49 C 157.77 205.10 154.18 202.20 152.21 199.82 C 151.19 198.26 148.48 196.40 150.28 194.48 C 153.95 189.93 159.99 187.73 165.75 188.46 C 166.03 192.31 165.07 196.10 165.06 199.94 C 164.87 203.06 168.19 205.01 170.95 205.08 C 174.36 205.15 177.33 200.68 175.12 197.82 C 173.50 195.73 170.73 196.74 168.58 197.09 C 170.63 197.62 172.71 198.07 174.78 198.54 C 174.11 200.26 174.10 202.77 171.91 203.32 C 170.18 203.09 168.60 202.30 166.99 201.69 C 167.54 197.57 169.75 193.96 170.66 189.97 C 170.56 186.42 167.45 184.02 165.44 181.42 C 167.14 180.07 168.80 178.54 170.89 177.79 C 174.56 180.46 176.39 187.16 181.85 186.13 C 186.20 185.56 187.57 179.11 183.65 177.00 C 181.14 175.76 179.12 178.16 177.32 179.51 C 179.20 178.94 181.05 178.22 182.99 177.84 C 183.98 178.83 185.03 180.16 184.64 181.67 C 184.24 184.60 179.47 185.76 178.18 182.90 C 176.13 180.19 175.20 176.63 172.53 174.43 C 169.47 172.97 166.22 174.79 163.33 175.83 C 165.15 173.42 167.04 170.95 167.97 168.04 C 169.13 164.33 168.20 160.24 169.68 156.63 C 170.84 155.03 173.17 153.63 175.09 154.77 C 177.23 155.71 177.02 158.48 177.74 160.36 C 175.26 160.11 172.93 161.40 170.44 161.01 C 172.79 161.83 175.91 162.92 177.82 160.64 C 180.17 156.89 175.55 151.50 171.50 153.53 C 167.04 155.04 167.13 160.39 165.95 164.14 C 165.26 167.59 162.45 169.94 159.73 171.86 C 160.29 168.08 162.45 164.33 161.58 160.46 C 159.57 156.92 155.66 155.09 152.66 152.51 C 153.74 150.33 155.31 146.81 158.32 148.66 C 161.56 150.17 158.23 153.53 157.38 155.59 C 158.67 154.39 160.35 153.45 161.12 151.81 C 161.89 149.18 159.45 146.76 156.94 146.57 C 153.29 146.04 150.36 150.18 151.35 153.54 Z" />
<path fill="#000000" opacity="1.00" d=" M 124.22 179.98 C 122.00 178.43 122.32 174.24 125.18 173.75 C 127.60 172.86 129.03 175.47 130.61 176.77 C 128.59 178.00 126.68 179.77 124.22 179.98 Z" />
<path fill="#000000" opacity="1.00" d=" M 21.07 256.58 C 29.65 241.99 37.79 227.13 46.63 212.71 C 55.18 227.27 63.59 241.92 71.99 256.57 C 55.01 256.56 38.04 256.55 21.07 256.58 M 27.97 252.61 C 40.33 252.63 52.70 252.63 65.06 252.61 C 59.16 241.80 52.87 231.22 46.66 220.59 C 40.04 231.02 34.12 241.89 27.97 252.61 Z" />
<path fill="#000000" opacity="1.00" d=" M 258.19 212.75 C 264.35 222.70 269.94 232.99 275.89 243.07 C 278.48 247.49 281.09 251.90 283.31 256.51 C 266.51 256.64 249.71 256.53 232.91 256.57 C 241.08 241.82 249.57 227.24 258.19 212.75 M 258.19 220.62 C 251.83 231.14 245.56 241.73 239.80 252.59 C 252.15 252.69 264.51 252.52 276.87 252.69 C 270.66 241.99 264.74 231.11 258.19 220.62 Z" />
</g>
<g id="#c1d82fff">
<path fill="#c1d82f" opacity="1.00" d=" M 152.39 15.83 C 155.28 20.26 157.85 24.88 160.49 29.46 C 169.98 46.08 179.78 62.52 189.10 79.23 C 164.70 79.48 140.28 79.48 115.88 79.23 C 127.81 57.96 140.18 36.94 152.39 15.83 M 127.07 72.72 C 144.02 72.63 160.97 72.63 177.91 72.72 C 169.54 58.05 161.05 43.45 152.60 28.83 C 143.73 43.24 135.51 58.05 127.07 72.72 Z" />
<path fill="#c1d82f" opacity="1.00" d=" M 152.38 36.71 C 158.94 47.19 164.89 58.04 171.02 68.77 C 158.65 68.77 146.29 68.84 133.92 68.73 C 139.97 58.00 146.18 47.36 152.38 36.71 Z" />
<path fill="#c1d82f" opacity="1.00" d=" M 111.19 87.28 C 138.72 87.29 166.26 87.28 193.80 87.28 C 213.83 121.81 233.84 156.36 253.68 191.00 C 240.12 214.98 226.02 238.65 212.53 262.67 C 172.42 262.92 132.31 262.73 92.20 262.77 C 78.46 238.91 64.49 215.18 51.01 191.17 C 71.21 156.63 90.97 121.82 111.19 87.28 M 151.26 102.04 C 149.21 105.76 147.44 111.84 142.08 111.21 C 138.04 109.91 135.66 105.95 132.29 103.56 C 130.83 107.31 130.76 111.84 127.96 114.93 C 122.95 118.47 118.17 112.61 113.37 111.41 C 112.96 115.54 114.57 120.39 111.95 123.99 C 108.25 127.63 103.03 124.43 98.98 123.21 C 98.42 123.80 97.87 124.40 97.31 125.00 C 98.55 128.89 101.64 133.72 98.47 137.45 C 94.98 140.63 89.74 138.79 85.49 139.30 C 86.79 143.29 90.07 146.66 90.27 150.93 C 89.19 156.86 81.72 156.03 77.56 158.61 C 80.29 161.86 85.21 164.26 85.32 168.99 C 84.93 173.81 79.45 175.14 75.96 177.20 C 76.04 177.80 76.20 179.00 76.28 179.60 C 79.82 181.54 85.36 183.06 85.33 188.00 C 84.84 192.41 80.36 194.71 77.63 197.73 C 81.15 200.13 85.94 199.98 89.12 202.83 C 92.46 207.78 86.83 212.54 85.41 217.17 C 89.06 217.43 92.80 216.84 96.38 217.73 C 99.43 218.83 100.53 222.62 99.31 225.46 C 98.96 227.97 96.73 230.67 98.17 233.12 C 102.58 232.85 107.61 228.98 111.62 232.34 C 114.92 235.84 112.00 241.19 114.07 245.22 C 118.06 243.85 121.41 239.74 125.93 240.67 C 130.85 242.29 130.36 248.53 131.70 252.58 C 135.79 251.16 137.87 246.57 142.02 245.48 C 147.83 244.88 149.30 251.67 151.77 255.48 C 155.48 252.70 156.17 246.62 161.04 245.52 C 166.36 244.67 168.13 251.42 172.79 252.41 C 174.61 248.36 174.02 241.72 179.42 240.49 C 183.83 240.27 187.20 244.00 191.14 245.50 C 191.74 241.49 190.60 237.13 192.31 233.36 C 196.04 228.42 202.47 232.90 207.28 233.28 C 206.78 229.07 204.26 224.82 205.48 220.58 C 208.19 215.45 214.89 218.06 219.51 217.17 C 218.01 213.14 214.22 209.61 214.67 205.09 C 216.05 199.95 222.49 200.66 226.42 198.80 C 225.59 194.15 218.95 192.44 219.45 187.30 C 220.22 182.82 225.29 181.54 228.69 179.56 C 228.72 179.00 228.78 177.88 228.81 177.32 C 225.12 175.13 218.87 173.46 219.57 168.01 C 220.67 163.85 225.28 161.82 226.63 157.68 C 222.76 156.41 217.22 156.86 215.08 152.69 C 213.20 147.96 217.98 144.24 219.33 140.05 C 215.02 137.86 208.38 141.47 205.60 136.36 C 204.05 131.96 207.46 127.56 206.68 123.00 C 202.50 124.07 197.55 127.60 193.48 124.50 C 189.72 121.25 192.56 115.76 190.98 111.61 C 186.44 112.58 182.48 118.08 177.58 115.44 C 173.96 112.85 174.55 107.66 172.67 103.99 C 168.54 105.57 166.71 110.97 162.01 111.25 C 157.07 111.18 155.68 105.58 153.66 102.08 C 153.06 102.07 151.86 102.05 151.26 102.04 Z" />
<path fill="#c1d82f" opacity="1.00" d=" M 150.47 112.24 C 152.34 110.91 155.45 111.94 155.97 114.24 C 156.89 116.60 154.59 119.60 152.06 118.98 C 148.58 119.21 147.63 113.78 150.47 112.24 Z" />
<path fill="#c1d82f" opacity="1.00" d=" M 141.38 123.54 C 153.55 121.21 166.54 122.74 177.62 128.41 C 189.93 134.59 199.77 145.50 204.63 158.39 C 209.40 170.96 209.50 185.26 204.76 197.85 C 199.64 211.69 188.81 223.31 175.32 229.32 C 160.34 236.09 142.30 235.82 127.60 228.43 C 117.07 223.26 108.33 214.62 102.86 204.27 C 95.12 189.54 94.44 171.29 101.10 156.05 C 108.19 139.54 123.67 126.86 141.38 123.54 M 141.37 125.45 C 126.14 128.44 112.56 138.55 105.13 152.15 C 97.76 165.24 96.47 181.47 101.25 195.67 C 106.03 209.98 117.13 222.04 131.01 227.96 C 143.30 233.24 157.56 233.75 170.18 229.31 C 183.32 224.88 194.43 215.00 200.65 202.64 C 207.33 189.53 208.24 173.64 203.18 159.83 C 198.53 146.85 188.64 135.85 176.26 129.80 C 165.55 124.50 153.05 123.15 141.37 125.45 Z" />
<path fill="#c1d82f" opacity="1.00" d=" M 106.42 130.37 C 109.17 129.11 112.21 131.76 111.57 134.62 C 111.01 137.87 105.58 138.50 104.57 135.35 C 103.74 133.58 104.36 130.93 106.42 130.37 Z" />
<path fill="#c1d82f" opacity="1.00" d=" M 195.40 130.36 C 198.08 129.18 201.53 131.61 200.61 134.59 C 200.33 137.59 196.55 138.00 194.42 136.67 C 192.70 134.78 193.12 131.59 195.40 130.36 Z" />
<path fill="#c1d82f" opacity="1.00" d=" M 143.39 138.55 C 152.14 136.69 161.54 137.53 169.66 141.36 C 180.25 146.30 188.58 155.96 191.67 167.27 C 194.30 177.00 193.39 187.74 188.77 196.74 C 183.22 207.76 172.43 216.03 160.28 218.31 C 151.54 219.95 142.22 218.87 134.26 214.83 C 123.74 209.60 115.64 199.66 112.84 188.23 C 110.61 179.08 111.51 169.13 115.64 160.64 C 120.96 149.62 131.41 141.18 143.39 138.55 M 144.34 140.29 C 136.53 141.90 129.26 145.99 123.87 151.87 C 113.51 162.66 110.68 179.68 116.53 193.37 C 121.90 206.40 134.84 216.01 148.94 217.04 C 163.89 218.62 179.16 210.50 186.34 197.34 C 191.87 187.65 192.79 175.54 188.99 165.07 C 185.49 155.21 177.76 146.95 168.18 142.76 C 160.76 139.44 152.29 138.65 144.34 140.29 Z" />
<path fill="#c1d82f" opacity="1.00" d=" M 87.41 175.17 C 89.62 173.68 93.17 175.26 93.06 178.06 C 93.60 180.89 89.95 183.05 87.59 181.56 C 85.23 180.41 85.07 176.39 87.41 175.17 Z" />
<path fill="#c1d82f" opacity="1.00" d=" M 213.47 175.24 C 215.63 173.70 219.13 175.35 219.16 178.05 C 219.39 180.20 217.27 182.55 215.05 181.97 C 211.58 182.22 210.63 176.78 213.47 175.24 Z" />
<path fill="#c1d82f" opacity="1.00" d=" M 258.20 198.87 C 270.67 220.06 282.90 241.39 295.09 262.73 C 270.45 262.87 245.82 262.71 221.18 262.81 C 233.56 241.52 245.68 220.08 258.20 198.87 M 258.19 212.75 C 249.57 227.24 241.08 241.82 232.91 256.57 C 249.71 256.53 266.51 256.64 283.31 256.51 C 281.09 251.90 278.48 247.49 275.89 243.07 C 269.94 232.99 264.35 222.70 258.19 212.75 Z" />
<path fill="#c1d82f" opacity="1.00" d=" M 46.38 199.46 C 50.46 205.26 53.66 211.61 57.27 217.70 C 65.86 232.72 74.72 247.60 83.13 262.73 C 58.72 262.82 34.30 262.81 9.89 262.73 C 21.91 241.55 34.10 220.48 46.38 199.46 M 21.07 256.58 C 38.04 256.55 55.01 256.56 71.99 256.57 C 63.59 241.92 55.18 227.27 46.63 212.71 C 37.79 227.13 29.65 241.99 21.07 256.58 Z" />
<path fill="#c1d82f" opacity="1.00" d=" M 106.44 219.42 C 111.29 217.36 113.81 225.85 108.67 226.64 C 104.35 227.79 102.22 220.79 106.44 219.42 Z" />
<path fill="#c1d82f" opacity="1.00" d=" M 195.45 219.42 C 197.81 218.52 200.98 220.19 200.76 222.92 C 200.92 225.78 197.29 227.73 195.00 226.01 C 192.53 224.52 193.05 220.71 195.45 219.42 Z" />
<path fill="#c1d82f" opacity="1.00" d=" M 27.97 252.61 C 34.12 241.89 40.04 231.02 46.66 220.59 C 52.87 231.22 59.16 241.80 65.06 252.61 C 52.70 252.63 40.33 252.63 27.97 252.61 Z" />
<path fill="#c1d82f" opacity="1.00" d=" M 258.19 220.62 C 264.74 231.11 270.66 241.99 276.87 252.69 C 264.51 252.52 252.15 252.69 239.80 252.59 C 245.56 241.73 251.83 231.14 258.19 220.62 Z" />
<path fill="#c1d82f" opacity="1.00" d=" M 150.50 238.30 C 153.27 236.20 157.48 239.60 155.93 242.75 C 155.64 244.92 153.05 245.16 151.30 244.98 C 148.57 243.95 147.90 239.84 150.50 238.30 Z" />
</g>
<g id="#ffffffff">
<path fill="#ffffff" opacity="1.00" d=" M 144.39 127.53 C 146.74 129.48 146.82 132.50 146.11 135.26 C 145.08 132.80 144.57 130.17 144.39 127.53 Z" />
<path fill="#ffffff" opacity="1.00" d=" M 152.18 128.78 C 153.74 129.07 153.71 132.88 152.18 133.19 C 151.25 132.01 151.22 129.94 152.18 128.78 Z" />
<path fill="#ffffff" opacity="1.00" d=" M 158.37 135.52 C 158.01 132.68 158.19 129.74 160.06 127.43 C 160.27 130.25 159.82 133.07 158.37 135.52 Z" />
<path fill="#ffffff" opacity="1.00" d=" M 137.40 129.20 C 139.76 131.04 140.36 133.98 140.44 136.81 C 138.62 134.66 137.73 131.96 137.40 129.20 Z" />
<path fill="#ffffff" opacity="1.00" d=" M 164.39 136.67 C 164.39 133.94 165.05 131.20 167.16 129.31 C 166.96 131.99 166.22 134.63 164.39 136.67 Z" />
<path fill="#ffffff" opacity="1.00" d=" M 130.95 131.59 C 133.01 133.47 134.12 136.05 134.64 138.75 C 132.34 137.03 131.18 134.40 130.95 131.59 Z" />
<path fill="#ffffff" opacity="1.00" d=" M 170.12 138.61 C 170.63 135.90 171.81 133.36 173.89 131.50 C 173.55 134.28 172.52 136.99 170.12 138.61 Z" />
<path fill="#ffffff" opacity="1.00" d=" M 124.60 135.38 C 126.85 136.84 128.31 139.11 129.08 141.65 C 126.71 140.30 125.25 137.98 124.60 135.38 Z" />
<path fill="#ffffff" opacity="1.00" d=" M 175.81 141.61 C 176.47 139.03 177.83 136.65 180.19 135.27 C 179.56 137.87 178.07 140.14 175.81 141.61 Z" />
<path fill="#ffffff" opacity="1.00" d=" M 118.67 139.55 C 121.23 140.72 122.99 142.94 124.10 145.47 C 121.57 144.27 119.66 142.17 118.67 139.55 Z" />
<path fill="#ffffff" opacity="1.00" d=" M 180.76 145.42 C 181.75 142.81 183.56 140.60 186.24 139.63 C 185.03 142.07 183.20 144.16 180.76 145.42 Z" />
<path fill="#ffffff" opacity="1.00" d=" M 113.54 144.70 C 116.28 145.53 118.42 147.48 119.46 150.15 C 117.02 148.91 114.89 147.11 113.54 144.70 Z" />
<path fill="#ffffff" opacity="1.00" d=" M 185.50 150.12 C 186.40 147.38 188.53 145.41 191.30 144.63 C 189.81 146.89 187.82 148.73 185.50 150.12 Z" />
<path fill="#ffffff" opacity="1.00" d=" M 151.35 153.54 C 150.36 150.18 153.29 146.04 156.94 146.57 C 159.45 146.76 161.89 149.18 161.12 151.81 C 160.35 153.45 158.67 154.39 157.38 155.59 C 158.23 153.53 161.56 150.17 158.32 148.66 C 155.31 146.81 153.74 150.33 152.66 152.51 C 155.66 155.09 159.57 156.92 161.58 160.46 C 162.45 164.33 160.29 168.08 159.73 171.86 C 162.45 169.94 165.26 167.59 165.95 164.14 C 167.13 160.39 167.04 155.04 171.50 153.53 C 175.55 151.50 180.17 156.89 177.82 160.64 C 175.91 162.92 172.79 161.83 170.44 161.01 C 172.93 161.40 175.26 160.11 177.74 160.36 C 177.02 158.48 177.23 155.71 175.09 154.77 C 173.17 153.63 170.84 155.03 169.68 156.63 C 168.20 160.24 169.13 164.33 167.97 168.04 C 167.04 170.95 165.15 173.42 163.33 175.83 C 166.22 174.79 169.47 172.97 172.53 174.43 C 175.20 176.63 176.13 180.19 178.18 182.90 C 179.47 185.76 184.24 184.60 184.64 181.67 C 185.03 180.16 183.98 178.83 182.99 177.84 C 181.05 178.22 179.20 178.94 177.32 179.51 C 179.12 178.16 181.14 175.76 183.65 177.00 C 187.57 179.11 186.20 185.56 181.85 186.13 C 176.39 187.16 174.56 180.46 170.89 177.79 C 168.80 178.54 167.14 180.07 165.44 181.42 C 167.45 184.02 170.56 186.42 170.66 189.97 C 169.75 193.96 167.54 197.57 166.99 201.69 C 168.60 202.30 170.18 203.09 171.91 203.32 C 174.10 202.77 174.11 200.26 174.78 198.54 C 172.71 198.07 170.63 197.62 168.58 197.09 C 170.73 196.74 173.50 195.73 175.12 197.82 C 177.33 200.68 174.36 205.15 170.95 205.08 C 168.19 205.01 164.87 203.06 165.06 199.94 C 165.07 196.10 166.03 192.31 165.75 188.46 C 159.99 187.73 153.95 189.93 150.28 194.48 C 148.48 196.40 151.19 198.26 152.21 199.82 C 154.18 202.20 157.77 205.10 155.64 208.49 C 153.86 212.58 147.15 212.23 146.22 207.73 C 145.51 204.71 148.81 203.51 150.92 202.40 C 149.66 204.13 147.44 205.43 147.18 207.70 C 148.42 210.51 152.95 210.93 153.95 207.73 C 155.24 206.04 153.41 204.75 152.33 203.63 C 150.33 201.61 147.64 200.20 146.22 197.67 C 145.44 194.67 147.01 191.75 147.89 188.95 C 144.52 190.19 141.06 191.93 137.37 191.36 C 134.24 191.14 130.66 189.77 127.90 191.93 C 126.39 192.96 126.39 195.10 126.98 196.66 C 128.46 197.45 130.09 197.86 131.70 198.32 C 132.13 196.10 132.49 193.86 132.89 191.64 C 133.41 193.91 134.73 196.78 132.68 198.71 C 129.82 201.16 124.56 198.80 124.46 195.00 C 124.03 191.57 127.03 188.80 130.16 188.11 C 133.37 187.50 136.65 188.38 139.88 187.92 C 142.25 187.49 143.69 185.32 145.28 183.72 C 141.37 183.54 137.28 184.81 133.48 183.58 C 131.96 181.92 131.22 179.74 130.25 177.76 C 128.41 179.54 126.24 182.10 123.36 180.88 C 119.39 178.48 121.41 171.67 126.04 171.75 C 130.76 171.28 132.15 176.59 134.38 179.63 C 135.54 182.20 138.95 181.00 140.59 179.56 C 141.16 174.97 140.17 170.23 137.98 166.16 C 135.99 162.64 138.49 158.82 138.36 155.13 C 137.25 153.42 135.22 152.75 133.26 152.97 C 132.32 154.31 131.90 155.92 131.34 157.44 C 133.38 157.89 135.42 158.33 137.46 158.83 C 135.71 159.10 133.95 159.50 132.17 159.39 C 128.93 158.55 129.38 154.19 131.16 152.17 C 133.96 149.30 139.15 150.95 140.72 154.35 C 141.43 157.48 139.86 160.87 141.08 163.87 C 142.45 166.72 145.71 165.50 148.15 165.40 C 151.08 164.98 153.73 166.55 156.37 167.57 C 157.44 165.58 159.43 163.66 158.96 161.22 C 156.83 158.27 153.30 156.63 151.35 153.54 M 124.22 179.98 C 126.68 179.77 128.59 178.00 130.61 176.77 C 129.03 175.47 127.60 172.86 125.18 173.75 C 122.32 174.24 122.00 178.43 124.22 179.98 Z" />
<path fill="#ffffff" opacity="1.00" d=" M 109.38 150.18 C 111.90 151.18 114.27 152.66 115.63 155.09 C 113.03 154.21 110.72 152.63 109.38 150.18 Z" />
<path fill="#ffffff" opacity="1.00" d=" M 189.26 155.22 C 190.11 152.28 192.99 151.13 195.64 150.25 C 194.04 152.51 191.74 154.08 189.26 155.22 Z" />
<path fill="#ffffff" opacity="1.00" d=" M 105.61 156.89 C 108.44 157.10 111.08 158.29 112.71 160.67 C 110.07 160.00 107.57 158.83 105.61 156.89 Z" />
<path fill="#ffffff" opacity="1.00" d=" M 192.14 158.94 C 194.46 158.08 196.83 157.34 199.26 156.88 C 197.37 158.38 195.31 159.63 193.22 160.83 C 192.95 160.36 192.41 159.41 192.14 158.94 Z" />
<path fill="#ffffff" opacity="1.00" d=" M 103.24 163.35 C 105.89 163.71 108.47 164.54 110.64 166.15 C 107.87 166.20 104.93 165.79 103.24 163.35 Z" />
<path fill="#ffffff" opacity="1.00" d=" M 194.18 166.45 C 196.15 164.38 198.88 163.51 201.68 163.36 C 199.79 165.56 196.93 166.19 194.18 166.45 Z" />
<path fill="#ffffff" opacity="1.00" d=" M 195.44 172.59 C 197.48 170.58 200.33 170.36 203.06 170.53 C 200.94 172.37 198.15 172.69 195.44 172.59 Z" />
<path fill="#ffffff" opacity="1.00" d=" M 103.77 171.21 C 104.55 170.17 107.17 170.42 107.19 171.90 C 106.40 172.94 103.77 172.71 103.77 171.21 Z" />
<path fill="#ffffff" opacity="1.00" d=" M 101.19 178.88 C 103.47 176.93 106.45 177.04 108.85 178.74 C 106.30 179.01 103.74 179.12 101.19 178.88 Z" />
<path fill="#ffffff" opacity="1.00" d=" M 196.00 178.64 C 198.47 177.15 201.43 176.85 203.77 178.76 C 201.18 178.97 198.58 178.93 196.00 178.64 Z" />
<path fill="#ffffff" opacity="1.00" d=" M 101.44 185.61 C 103.94 184.19 106.80 183.96 109.60 184.43 C 107.12 185.89 104.24 186.10 101.44 185.61 Z" />
<path fill="#ffffff" opacity="1.00" d=" M 195.40 184.30 C 198.06 183.95 200.92 183.92 202.96 185.94 C 200.34 186.01 197.69 185.66 195.40 184.30 Z" />
<path fill="#ffffff" opacity="1.00" d=" M 103.34 193.04 C 105.26 191.01 107.98 190.36 110.69 190.32 C 108.66 192.16 106.00 192.86 103.34 193.04 Z" />
<path fill="#ffffff" opacity="1.00" d=" M 194.27 190.23 C 196.97 190.32 199.71 190.95 201.60 193.03 C 198.92 192.86 196.24 192.16 194.27 190.23 Z" />
<path fill="#ffffff" opacity="1.00" d=" M 105.53 199.78 C 107.47 197.79 109.98 196.54 112.68 195.99 C 111.14 198.52 108.33 199.47 105.53 199.78 Z" />
<path fill="#ffffff" opacity="1.00" d=" M 192.19 196.22 C 194.45 196.68 196.62 197.51 198.83 198.18 C 198.56 198.67 198.04 199.65 197.77 200.14 C 195.81 198.99 193.91 197.71 192.19 196.22 Z" />
<path fill="#ffffff" opacity="1.00" d=" M 109.38 206.22 C 110.60 203.71 113.03 202.41 115.65 201.82 C 114.09 203.96 111.88 205.42 109.38 206.22 Z" />
<path fill="#ffffff" opacity="1.00" d=" M 188.78 201.79 C 191.57 202.26 194.25 203.53 195.51 206.22 C 192.94 205.29 190.65 203.77 188.78 201.79 Z" />
<path fill="#ffffff" opacity="1.00" d=" M 113.67 212.21 C 114.61 209.49 116.87 207.70 119.49 206.71 C 118.23 209.18 116.16 211.05 113.67 212.21 Z" />
<path fill="#ffffff" opacity="1.00" d=" M 185.39 206.76 C 187.97 207.77 190.25 209.50 191.30 212.15 C 188.79 211.03 186.72 209.17 185.39 206.76 Z" />
<path fill="#ffffff" opacity="1.00" d=" M 118.78 217.34 C 119.43 214.46 121.47 212.32 124.26 211.43 C 123.01 213.87 121.22 216.01 118.78 217.34 Z" />
<path fill="#ffffff" opacity="1.00" d=" M 180.77 211.39 C 183.44 212.40 185.43 214.49 186.19 217.26 C 183.88 215.81 182.06 213.77 180.77 211.39 Z" />
<path fill="#ffffff" opacity="1.00" d=" M 175.79 214.75 C 178.05 216.41 179.71 218.71 180.37 221.45 C 178.03 219.87 176.53 217.45 175.79 214.75 Z" />
<path fill="#ffffff" opacity="1.00" d=" M 124.63 221.48 C 125.30 218.87 126.80 216.60 129.11 215.18 C 128.38 217.75 126.90 220.02 124.63 221.48 Z" />
<path fill="#ffffff" opacity="1.00" d=" M 133.95 217.66 C 134.84 220.54 133.32 223.21 130.96 224.84 C 131.58 222.31 132.63 219.91 133.95 217.66 Z" />
<path fill="#ffffff" opacity="1.00" d=" M 170.64 218.18 C 172.45 220.00 173.61 222.29 174.17 224.78 C 171.73 223.42 170.94 220.80 170.64 218.18 Z" />
<path fill="#ffffff" opacity="1.00" d=" M 137.87 227.58 C 137.93 224.87 138.49 222.10 140.58 220.20 C 140.45 222.89 139.71 225.54 137.87 227.58 Z" />
<path fill="#ffffff" opacity="1.00" d=" M 164.40 220.15 C 166.55 222.03 167.12 224.82 167.15 227.56 C 165.35 225.48 164.58 222.84 164.40 220.15 Z" />
<path fill="#ffffff" opacity="1.00" d=" M 144.17 228.30 C 144.75 225.93 145.35 223.54 146.46 221.36 C 146.58 223.43 146.60 225.51 146.60 227.58 C 145.99 227.76 144.78 228.12 144.17 228.30 Z" />
<path fill="#ffffff" opacity="1.00" d=" M 158.58 221.31 C 159.63 223.50 160.25 225.84 160.84 228.19 C 160.23 228.08 159.02 227.85 158.41 227.74 C 158.40 225.59 158.45 223.45 158.58 221.31 Z" />
<path fill="#ffffff" opacity="1.00" d=" M 152.29 223.75 C 153.87 223.98 153.87 227.84 152.30 228.08 C 151.34 226.94 151.34 224.89 152.29 223.75 Z" />
</g>
</svg>
