<?xml version="1.0" encoding="UTF-8" ?>
<!DOCTYPE svg PUBLIC "-//W3C//DTD SVG 1.1//EN" "http://www.w3.org/Graphics/SVG/1.1/DTD/svg11.dtd">
<svg width="400pt" height="100pt" viewBox="0 0 400 100" version="1.1" xmlns="http://www.w3.org/2000/svg">
<g id="#fd6100fd">
<path fill="#fd6100" opacity="1.00" d=" M 20.39 13.25 C 31.21 13.25 42.03 13.21 52.86 13.28 C 48.09 21.50 43.49 29.82 38.77 38.07 C 42.03 43.77 45.24 49.51 48.52 55.20 C 51.97 49.57 55.05 43.72 58.40 38.03 C 57.35 36.27 56.32 34.51 55.27 32.76 C 52.78 37.21 50.22 41.61 47.65 46.01 C 46.27 43.68 44.93 41.33 43.56 39.00 C 47.57 32.41 51.43 25.73 55.45 19.15 C 59.17 25.43 62.75 31.79 66.51 38.05 C 61.64 46.28 56.83 54.56 52.00 62.82 C 49.70 62.81 47.40 62.81 45.10 62.79 C 40.30 54.53 35.48 46.28 30.62 38.06 C 34.09 32.30 37.41 26.45 40.85 20.68 C 39.30 20.68 37.74 20.69 36.19 20.70 C 32.94 26.50 29.68 32.29 26.36 38.05 C 31.08 46.29 35.71 54.58 40.44 62.81 C 37.84 62.81 35.25 62.81 32.66 62.78 C 27.94 54.48 23.04 46.30 18.24 38.05 C 21.68 32.28 25.01 26.45 28.47 20.68 C 26.92 20.68 25.38 20.68 23.84 20.67 C 20.54 26.47 17.26 32.27 13.99 38.08 C 18.66 46.32 23.34 54.56 28.01 62.80 C 25.46 62.82 22.90 62.81 20.35 62.81 C 15.50 54.57 10.69 46.31 5.86 38.06 C 10.72 29.80 15.53 21.51 20.39 13.25 Z" />
<path fill="#fd6100" opacity="1.00" d=" M 74.25 50.79 C 74.29 42.78 74.18 34.78 74.32 26.77 C 78.04 26.81 81.77 26.82 85.49 26.75 C 88.40 31.25 90.61 36.15 93.47 40.67 C 93.78 40.76 94.40 40.94 94.71 41.03 C 97.55 36.37 99.96 31.45 102.78 26.78 C 106.61 26.81 110.44 26.80 114.27 26.80 C 114.30 34.79 114.27 42.78 114.29 50.76 C 111.77 50.76 109.25 50.76 106.74 50.74 C 106.70 45.12 106.84 39.51 106.62 33.90 C 103.61 39.63 100.20 45.14 97.06 50.79 C 95.17 50.76 93.27 50.85 91.39 50.61 C 87.85 45.21 84.92 39.42 81.61 33.88 C 81.49 39.49 81.54 45.11 81.58 50.72 C 79.14 50.75 76.70 50.77 74.25 50.79 Z" />
<path fill="#fd6100" opacity="1.00" d=" M 116.74 50.71 C 121.32 42.82 125.67 34.79 130.10 26.81 C 133.38 26.79 136.66 26.79 139.93 26.82 C 144.44 34.81 148.93 42.80 153.51 50.75 C 150.66 50.76 147.81 50.76 144.96 50.74 C 144.17 49.35 143.37 47.97 142.56 46.59 C 137.58 46.66 132.60 46.65 127.61 46.60 C 126.81 47.99 126.02 49.39 125.24 50.79 C 122.40 50.76 119.57 50.75 116.74 50.71 M 134.98 32.68 C 133.44 35.59 131.90 38.50 130.29 41.38 C 133.46 41.38 136.64 41.38 139.82 41.38 C 138.23 38.46 136.64 35.55 134.98 32.68 Z" />
<path fill="#fd6100" opacity="1.00" d=" M 155.73 27.24 C 158.34 26.80 160.98 26.73 163.61 26.76 C 163.64 29.68 163.64 32.60 163.61 35.52 C 164.79 35.54 165.96 35.56 167.13 35.57 C 170.36 32.66 173.46 29.60 176.75 26.75 C 180.13 26.82 183.52 26.80 186.91 26.82 C 182.53 30.81 177.93 34.58 173.68 38.71 C 178.66 42.64 183.49 46.75 188.45 50.71 C 184.88 50.77 181.31 50.76 177.74 50.78 C 174.05 47.80 170.49 44.66 166.82 41.65 C 166.02 41.64 164.43 41.62 163.64 41.62 C 163.64 44.67 163.64 47.72 163.64 50.78 C 161.02 50.77 158.39 50.75 155.77 50.69 C 155.78 42.87 155.85 35.06 155.73 27.24 Z" />
<path fill="#fd6100" opacity="1.00" d=" M 190.83 50.66 C 191.09 42.69 190.30 34.67 191.32 26.75 C 200.16 26.85 209.00 26.79 217.84 26.79 C 217.86 28.68 217.88 30.56 217.90 32.45 C 211.48 32.45 205.07 32.43 198.65 32.46 C 198.66 33.42 198.68 35.33 198.69 36.29 C 204.89 36.34 211.09 36.16 217.29 36.41 C 217.11 38.06 216.94 39.71 216.76 41.36 C 210.73 41.30 204.70 41.33 198.67 41.34 C 198.67 42.49 198.66 43.65 198.66 44.80 C 205.24 44.84 211.83 44.81 218.41 44.82 C 218.43 46.80 218.45 48.78 218.46 50.76 C 209.25 50.70 200.04 50.89 190.83 50.66 Z" />
<path fill="#fd6100" opacity="1.00" d=" M 222.81 26.81 C 230.55 26.84 238.30 26.72 246.04 26.84 C 249.06 26.81 252.67 28.57 252.71 31.99 C 252.95 35.29 253.65 40.14 249.45 41.19 C 253.52 42.66 252.68 47.25 252.91 50.67 C 250.40 50.73 247.90 50.77 245.40 50.80 C 245.27 48.74 245.00 46.68 244.47 44.68 C 239.79 44.47 235.11 44.57 230.43 44.53 C 230.44 46.62 230.44 48.71 230.45 50.80 C 227.90 50.77 225.34 50.75 222.79 50.70 C 222.82 42.74 222.79 34.77 222.81 26.81 M 230.48 32.74 C 230.46 34.66 230.43 36.58 230.41 38.50 C 235.37 38.46 240.33 38.61 245.29 38.33 C 245.39 36.76 245.48 35.20 245.55 33.63 C 240.70 31.99 235.50 33.02 230.48 32.74 Z" />
</g>
<g id="#616467fd">
<path fill="#616467" opacity="1.00" d=" M 337.03 26.86 C 340.19 27.07 343.66 26.24 346.65 27.26 C 351.59 34.78 355.51 42.96 360.23 50.63 C 357.43 50.66 354.62 50.66 351.82 50.64 C 351.05 49.25 350.27 47.87 349.49 46.49 C 344.38 46.55 339.26 46.48 334.15 46.57 C 333.48 47.93 332.81 49.29 332.15 50.66 C 329.36 50.66 326.58 50.65 323.79 50.61 C 328.22 42.70 332.64 34.79 337.03 26.86 M 337.06 41.43 C 340.31 41.45 343.56 41.44 346.82 41.43 C 345.14 38.45 343.50 35.45 341.92 32.43 C 340.27 35.41 338.66 38.42 337.06 41.43 Z" />
<path fill="#616467" opacity="1.00" d=" M 259.09 30.09 C 261.43 26.53 266.27 26.79 270.03 26.66 C 275.52 26.91 281.24 25.92 286.55 27.75 C 289.42 28.92 289.59 32.20 289.78 34.84 C 287.35 34.86 284.93 34.85 282.50 34.84 C 282.19 34.25 281.55 33.07 281.23 32.49 C 276.86 32.48 272.47 32.21 268.11 32.55 C 266.00 32.69 265.51 35.29 265.53 36.98 C 265.59 39.44 265.07 42.25 266.56 44.40 C 269.08 45.95 272.22 45.20 275.03 45.41 C 277.96 45.42 282.38 45.96 282.73 41.91 C 279.55 41.85 276.36 41.86 273.18 41.87 C 273.17 40.31 273.17 38.75 273.18 37.20 C 278.69 37.22 284.21 37.21 289.73 37.19 C 289.21 41.40 291.37 47.39 286.90 50.00 C 283.10 51.30 278.95 50.73 275.00 50.89 C 270.70 50.72 266.22 51.39 262.07 50.02 C 258.89 48.79 257.84 45.22 257.83 42.10 C 257.87 38.11 257.25 33.79 259.09 30.09 Z" />
<path fill="#616467" opacity="1.00" d=" M 294.36 50.66 C 294.43 42.71 294.27 34.76 294.46 26.81 C 303.41 27.09 312.40 26.35 321.32 27.25 C 321.27 28.97 321.24 30.70 321.21 32.42 C 314.71 32.48 308.22 32.41 301.72 32.48 C 301.73 33.44 301.76 35.35 301.77 36.30 C 307.92 36.35 314.08 36.24 320.24 36.39 C 320.21 38.00 320.18 39.60 320.15 41.21 C 313.94 41.23 307.73 41.20 301.52 41.23 C 301.80 42.58 302.07 43.93 302.36 45.28 C 308.71 44.46 315.12 45.03 321.50 44.84 C 321.53 46.78 321.57 48.72 321.60 50.67 C 312.52 50.66 303.44 50.67 294.36 50.66 Z" />
<path fill="#616467" opacity="1.00" d=" M 362.92 27.74 C 363.13 27.54 363.56 27.14 363.77 26.94 C 369.19 26.64 374.62 26.95 380.04 26.82 C 383.36 26.87 386.86 26.57 390.01 27.85 C 393.58 29.85 393.00 34.54 392.63 37.98 C 392.49 39.84 390.52 40.41 389.14 41.14 C 393.33 42.57 392.90 47.08 392.86 50.65 C 390.39 50.66 387.92 50.66 385.46 50.67 C 385.37 48.60 385.13 46.53 384.44 44.56 C 379.75 44.49 375.07 44.51 370.38 44.51 C 370.39 46.56 370.40 48.62 370.41 50.68 C 367.87 50.66 365.33 50.64 362.80 50.58 C 362.95 42.97 362.65 35.34 362.92 27.74 M 370.43 32.72 C 370.40 34.69 370.38 36.65 370.37 38.61 C 375.35 38.59 380.35 38.75 385.32 38.38 C 385.44 36.76 385.53 35.14 385.61 33.52 C 380.68 32.06 375.48 32.96 370.43 32.72 Z" />
</g>
</svg>
