<?xml version="1.0" encoding="UTF-8" ?>
<!DOCTYPE svg PUBLIC "-//W3C//DTD SVG 1.1//EN" "http://www.w3.org/Graphics/SVG/1.1/DTD/svg11.dtd">
<svg width="410pt" height="57pt" viewBox="0 0 410 57" version="1.1" xmlns="http://www.w3.org/2000/svg">
<g id="#ffffffff">
<path fill="#ffffff" opacity="1.00" d=" M 16.52 0.00 L 52.82 0.00 C 48.05 8.74 43.19 17.44 38.33 26.13 C 37.90 27.15 36.82 28.32 37.62 29.44 C 40.98 35.79 44.64 41.99 48.05 48.32 C 51.57 41.80 55.46 35.46 58.75 28.82 C 58.48 26.46 56.76 24.49 55.81 22.33 C 52.75 27.38 49.92 32.55 47.00 37.67 C 45.55 34.99 44.08 32.32 42.51 29.71 C 46.78 22.03 51.32 14.51 55.74 6.92 C 59.78 13.48 63.46 20.25 67.30 26.93 C 68.01 27.90 67.99 29.13 67.27 30.09 C 62.22 39.04 56.95 47.87 51.97 56.87 C 49.35 56.91 46.73 56.90 44.11 56.83 C 39.04 47.37 33.27 38.29 28.27 28.80 C 31.02 21.73 35.98 15.49 39.23 8.54 C 37.50 8.56 35.78 8.59 34.06 8.64 C 30.73 15.03 27.00 21.20 23.66 27.58 C 22.89 28.67 23.90 29.78 24.33 30.76 C 29.25 39.48 34.08 48.25 38.95 57.00 L 30.53 57.00 C 25.33 48.64 20.72 39.92 15.67 31.47 C 15.18 30.25 13.72 28.92 14.59 27.55 C 18.09 21.16 21.85 14.92 25.44 8.58 C 23.72 8.57 21.99 8.56 20.27 8.54 C 16.77 14.77 13.30 21.00 9.85 27.25 C 8.70 28.54 10.15 29.99 10.63 31.21 C 15.48 39.78 20.23 48.39 24.99 57.00 L 16.57 57.00 C 11.11 48.09 6.13 38.88 0.82 29.88 C -0.50 28.53 0.93 27.05 1.55 25.80 C 6.64 17.26 11.36 8.50 16.52 0.00 Z" />
<path fill="#ffffff" opacity="1.00" d=" M 275.65 18.54 C 279.75 15.46 285.23 16.73 289.99 16.45 C 294.31 16.71 299.09 15.61 303.00 17.97 C 305.51 19.51 305.40 22.72 305.55 25.30 C 303.10 25.31 300.64 25.31 298.19 25.27 C 297.91 24.66 297.34 23.44 297.06 22.83 C 292.74 22.22 288.33 22.48 283.98 22.61 C 282.17 22.62 281.11 24.39 281.25 26.05 C 281.01 29.12 281.10 32.23 281.76 35.24 C 286.89 36.25 292.21 35.96 297.39 35.44 C 297.57 34.48 297.76 33.52 297.96 32.56 C 294.81 32.54 291.66 32.55 288.52 32.56 C 288.51 30.81 288.50 29.07 288.49 27.33 C 294.18 27.28 299.87 27.33 305.56 27.30 C 305.49 30.70 305.82 34.14 305.31 37.51 C 304.82 40.03 302.35 41.57 299.91 41.64 C 292.62 41.98 285.20 42.74 277.99 41.20 C 274.15 39.98 272.90 35.68 273.27 32.05 C 273.65 27.58 272.00 22.03 275.65 18.54 Z" />
<path fill="#ffffff" opacity="1.00" d=" M 87.35 41.65 C 87.31 33.32 87.30 24.99 87.36 16.66 C 91.26 16.68 95.17 16.66 99.07 16.69 C 101.96 22.02 104.69 27.43 107.72 32.68 C 110.32 27.27 113.46 22.14 116.07 16.73 C 119.98 16.63 123.90 16.68 127.81 16.67 C 127.83 24.99 127.80 33.31 127.82 41.62 C 125.37 41.63 122.92 41.63 120.47 41.64 C 120.42 35.76 120.58 29.87 120.37 23.99 C 117.05 29.84 113.79 35.72 110.56 41.62 C 108.61 41.63 106.67 41.63 104.72 41.64 C 101.39 35.78 98.27 29.81 94.80 24.03 C 94.69 29.90 94.78 35.77 94.75 41.63 C 92.28 41.63 89.82 41.63 87.35 41.65 Z" />
<path fill="#ffffff" opacity="1.00" d=" M 130.50 41.58 C 135.08 33.34 139.49 25.00 143.95 16.69 C 147.29 16.66 150.63 16.65 153.97 16.71 C 158.46 25.03 162.96 33.34 167.60 41.58 C 164.70 41.65 161.79 41.67 158.90 41.56 C 158.19 40.16 157.55 38.71 156.66 37.41 C 151.55 37.23 146.42 37.20 141.32 37.43 C 140.48 38.77 139.83 40.22 139.13 41.64 C 136.25 41.63 133.38 41.64 130.50 41.58 M 148.68 23.15 C 147.10 25.97 145.75 28.90 144.22 31.74 C 147.41 31.81 150.60 31.82 153.79 31.72 C 151.93 29.02 151.05 25.22 148.68 23.15 Z" />
<path fill="#ffffff" opacity="1.00" d=" M 170.24 16.67 C 172.73 16.67 175.22 16.67 177.72 16.63 C 177.83 19.69 177.80 22.75 177.79 25.81 C 179.39 25.66 181.42 26.27 182.53 24.71 C 185.33 22.02 188.16 19.36 190.97 16.68 C 194.40 16.66 197.82 16.64 201.25 16.73 C 197.00 20.99 192.26 24.74 187.97 28.97 C 192.96 33.15 197.92 37.36 202.86 41.60 C 199.17 41.48 195.39 42.01 191.77 41.37 C 188.08 38.46 184.88 34.92 181.00 32.26 C 180.20 32.24 178.60 32.19 177.79 32.17 C 177.80 35.32 177.80 38.48 177.79 41.64 C 175.27 41.63 172.75 41.63 170.23 41.64 C 170.23 33.32 170.23 25.00 170.24 16.67 Z" />
<path fill="#ffffff" opacity="1.00" d=" M 205.68 16.67 C 214.71 16.68 223.75 16.65 232.78 16.69 C 232.77 18.65 232.77 20.61 232.76 22.57 C 226.30 22.55 219.83 22.57 213.36 22.55 C 213.36 23.87 213.36 25.19 213.36 26.51 C 219.50 26.50 225.64 26.48 231.78 26.52 C 231.76 28.25 231.75 29.98 231.74 31.70 C 225.62 31.68 219.50 31.70 213.38 31.69 C 213.37 32.67 213.36 34.65 213.35 35.63 C 220.00 35.64 226.66 35.63 233.31 35.64 C 233.31 37.63 233.32 39.62 233.33 41.60 C 224.11 41.65 214.88 41.65 205.66 41.60 C 205.69 33.29 205.66 24.98 205.68 16.67 Z" />
<path fill="#ffffff" opacity="1.00" d=" M 237.79 16.68 C 245.54 16.67 253.29 16.65 261.04 16.68 C 263.84 16.56 267.24 17.87 267.85 20.92 C 268.76 24.79 269.05 30.54 264.31 31.99 C 269.00 32.69 268.19 38.14 268.21 41.58 C 265.65 41.63 263.09 41.64 260.53 41.65 C 260.27 39.61 261.10 37.10 259.41 35.54 C 254.80 34.91 250.11 35.41 245.47 35.26 C 245.47 37.38 245.47 39.51 245.48 41.64 C 242.91 41.63 240.34 41.63 237.78 41.60 C 237.79 33.30 237.78 24.99 237.79 16.68 M 245.53 22.85 C 245.49 24.83 245.46 26.80 245.44 28.78 C 250.49 29.17 255.65 29.49 260.64 28.38 C 260.67 26.75 260.64 25.12 260.57 23.49 C 255.62 22.39 250.54 23.02 245.53 22.85 Z" />
<path fill="#ffffff" opacity="1.00" d=" M 310.21 16.67 C 319.25 16.67 328.30 16.67 337.35 16.67 C 337.35 18.63 337.35 20.59 337.35 22.56 C 330.81 22.57 324.26 22.54 317.72 22.57 C 317.72 23.55 317.72 25.51 317.72 26.49 C 323.92 26.52 330.12 26.49 336.33 26.51 C 336.33 28.23 336.33 29.94 336.35 31.66 C 330.14 31.74 323.93 31.67 317.72 31.70 C 317.72 33.01 317.71 34.31 317.71 35.62 C 324.35 35.65 331.00 35.65 337.64 35.61 C 337.67 37.62 337.67 39.63 337.69 41.64 C 328.53 41.63 319.37 41.62 310.21 41.64 C 310.20 33.32 310.20 24.99 310.21 16.67 Z" />
<path fill="#ffffff" opacity="1.00" d=" M 353.13 16.73 C 356.48 16.64 359.83 16.67 363.18 16.67 C 367.75 24.96 372.22 33.31 376.86 41.57 C 374.02 41.62 371.17 41.76 368.34 41.54 C 367.42 40.23 366.76 38.76 366.04 37.34 C 360.89 37.27 355.74 37.32 350.59 37.31 C 349.86 38.75 349.13 40.20 348.40 41.65 C 345.57 41.63 342.74 41.64 339.91 41.61 C 344.18 33.24 348.91 25.12 353.13 16.73 M 358.00 22.95 C 356.53 25.90 355.08 28.86 353.49 31.74 C 356.65 31.80 359.83 31.80 363.00 31.75 C 361.34 28.82 360.18 25.56 358.00 22.95 Z" />
<path fill="#ffffff" opacity="1.00" d=" M 379.48 41.64 C 379.47 33.32 379.46 24.99 379.48 16.67 C 387.32 16.70 395.17 16.62 403.01 16.69 C 405.81 16.62 408.99 18.12 409.63 21.09 C 410.12 24.89 410.86 30.33 406.28 31.89 C 410.60 33.19 409.88 38.10 409.87 41.63 C 407.33 41.63 404.79 41.63 402.26 41.65 C 402.28 39.56 402.15 37.46 401.43 35.47 C 396.70 35.08 391.96 35.32 387.23 35.25 C 387.22 37.37 387.21 39.49 387.22 41.61 C 384.64 41.63 382.06 41.63 379.48 41.64 M 387.31 22.79 C 387.21 24.88 387.22 26.98 387.35 29.07 C 392.32 28.42 397.40 29.43 402.33 28.39 C 402.36 26.83 402.37 25.26 402.36 23.70 C 401.25 23.40 400.15 23.10 399.04 22.80 C 395.14 23.31 391.21 23.04 387.31 22.79 Z" />
</g>
</svg>
