<?xml version="1.0" encoding="UTF-8" ?>
<!DOCTYPE svg PUBLIC "-//W3C//DTD SVG 1.1//EN" "http://www.w3.org/Graphics/SVG/1.1/DTD/svg11.dtd">
<svg width="345pt" height="535pt" viewBox="0 0 345 535" version="1.1" xmlns="http://www.w3.org/2000/svg">
<g id="#ffffffff">
</g>
<g id="#854a9dff">
<path fill="#854a9d" opacity="1.00" d=" M 236.24 0.00 L 237.03 0.00 C 270.86 100.02 303.56 200.42 335.72 300.93 C 312.61 314.68 287.16 324.11 263.00 335.92 C 239.36 267.48 218.28 198.23 194.62 129.80 C 207.73 86.30 223.45 43.55 236.24 0.00 Z" />
</g>
<g id="#f6e21eff">
<path fill="#f6e21e" opacity="1.00" d=" M 102.00 410.01 C 133.67 316.87 162.92 222.91 194.62 129.80 C 218.28 198.23 239.36 267.48 263.00 335.92 C 209.11 360.10 156.10 386.26 102.00 410.01 Z" />
</g>
<g id="#25ad8bff">
<path fill="#25ad8b" opacity="1.00" d=" M 102.00 410.01 C 156.10 386.26 209.11 360.10 263.00 335.92 C 283.80 401.74 306.11 467.12 326.93 532.96 C 217.95 533.09 108.98 532.91 0.00 533.04 L 0.00 531.43 C 8.57 505.27 16.97 479.06 25.86 453.00 C 27.65 450.00 26.17 444.50 30.09 443.08 C 54.20 432.36 78.01 420.97 102.00 410.01 Z" />
</g>
</svg>
