<?xml version="1.0" encoding="utf-8"?>
<!-- Generator: Fusion 360, Shaper Origin Export Add-In, Version 1.4.1  -->
<svg enable-background="new 0 0 16.5528011 2.4092" height="2.4092cm" shaper:fusionaddin="version:1.4.1" version="1.1" viewBox="0 0 16.5528011 2.4092" width="16.5528011cm" x="0cm" xml:space="preserve" xmlns="http://www.w3.org/2000/svg" xmlns:shaper="http://www.shapertools.com/namespaces/shaper" xmlns:xlink="http://www.w3.org/1999/xlink" y="0cm"><path d="M2.4135001,2.4001 L2.4135001,1.9001 3.9135001,1.9001 3.9448001,1.8977 3.9753001,1.8903 4.0177,1.8701 4.0548999,1.8415 4.0753005,1.8177 4.0916998,1.7909 4.1074002,1.7467 4.1109998,1.6188 4.1036999,1.5883 4.0834997,1.5459 4.0548999,1.5087 4.0310004,1.4883 3.9448001,1.4526 3.9135001,1.4501 2.9392002,1.4501 2.9392002,0.9501 3.9135001,0.9501 3.9448001,0.9477 4.0310004,0.9119 4.0753005,0.8677 4.0916998,0.8409 4.1074002,0.7967 4.1109998,0.6688 4.1036999,0.6382999 4.0834997,0.5959 4.0548999,0.5587 4.0310004,0.5383 3.9897997,0.5159 3.9135001,0.5001 2.4135001,0.5001 2.4135001,0 4.1134999,0 4.1985996,0.0347999 4.2787001,0.0797999 4.3524997,0.1344999 4.4189003,0.1978999 4.4768999,0.2692 4.5255001,0.3471999 4.5639999,0.4306 4.5916994,0.5182 4.6083,0.6086 4.6135004,0.7002999 4.6070993,0.792 4.5894001,0.8821 4.5603998,0.9694 4.5208995,1.0523 4.4712007,1.1296 4.4122999,1.2001 4.4712007,1.2706 4.5208995,1.348 4.5603998,1.4309 4.5894001,1.5181 4.6070993,1.6082 4.6135004,1.6999 4.6083,1.7916 4.5916994,1.882 4.5639999,1.9696 4.5255001,2.053 4.4768999,2.131 4.4189003,2.2023 4.3524997,2.2658 4.2787001,2.3205 4.1985996,2.3655 4.1134999,2.4001 2.4135001,2.4001z" fill="rgb(0,0,0)" shaper:cutDepth="0" shaper:pathType="exterior" transform="matrix(1,0,0,-1,11.9393008,2.4092)" vector-effect="non-scaling-stroke" /><path d="M-2.4536002,0.2035999 L-2.4241003,0.2667999 -2.4061002,0.3341999 -2.4000002,0.4035999 -2.4000002,1.0501 -2.4061002,1.1196 -2.4241003,1.1869 -2.4536002,1.2501 -2.4936002,1.3072 -2.5429002,1.3565 -2.6000003,1.3965 -2.6632002,1.426 -2.7306002,1.444 -2.8000003,1.4501 -4.2393002,1.4501 -4.2393002,1.9001 -2.5393002,1.9001 -2.5393002,2.4001 -4.3393002,2.4001 -4.4324002,2.3879 -4.5209002,2.3565 -4.5982002,2.3033 -4.6629002,2.2351999 -4.6957003,2.1817 -4.7270002,2.0932 -4.7393003,2.0001 -4.7393003,1.3501 -4.7270002,1.257 -4.6957003,1.1685 -4.6425002,1.0911 -4.5744002,1.0265 -4.5209002,0.9937 -4.4324002,0.9624 -4.3393002,0.9501 -2.9000002,0.9501 -2.9000002,0.5035999 -4.6000003,0.5035999 -4.6000003,0.0035999 -2.8000003,0.0035999 -2.7306002,0.0096999 -2.6632002,0.0278 -2.6000003,0.0572 -2.5429002,0.0971999 -2.4936002,0.1464999 -2.4536002,0.2035999z" fill="rgb(0,0,0)" shaper:cutDepth="0" shaper:pathType="exterior" transform="matrix(1,0,0,-1,11.9393008,2.4092)" vector-effect="non-scaling-stroke" /><path d="M-0.5000002,0.7000999 L-0.5000002,0 0,0 0,2.0001 -0.0123,2.0932 -0.0436001,2.1817 -0.1172001,2.283 -0.1917,2.3400999 -0.2764001,2.3805 -0.3374,2.3952 -0.4000001,2.4001 -1.8000002,2.4001 -1.9236002,2.3805 -1.9816002,2.3565 -2.0590003,2.3033 -2.1236002,2.2351999 -2.1564002,2.1817 -2.1804003,2.1237 -2.2000002,2.0001 -2.2000002,0.0024999 -1.7000002,0.0017999 -1.7000002,1.9001 -0.5000002,1.9001 -0.5000002,1.2001 -1.6181002,1.2001 -1.6181002,0.7000999 -0.5000002,0.7000999z" fill="rgb(0,0,0)" shaper:cutDepth="0" shaper:pathType="exterior" transform="matrix(1,0,0,-1,11.9393008,2.4092)" vector-effect="non-scaling-stroke" /><path d="M1.7134998,1.2505 L1.7134998,0 2.2134001,0 2.2134001,1.2505 2.2045996,1.3242 2.1744001,1.4312 2.1278999,1.5322 2.0866997,1.5939 2.0361001,1.6684 2.0170996,1.7333 2.0133002,1.8008 2.0209,1.8453 2.0864999,1.9625 2.1203001,1.9869 2.1611001,2.0339 2.1899998,2.089 2.2003996,2.1294 2.1996996,2.2124 2.1885998,2.2525001 2.1586998,2.3070999 2.1171,2.3535 2.0828998,2.3772 2.0049002,2.4054999 1.9634001,2.4092 1.9017999,2.4001 1.8439,2.3772 1.7801001,2.3241 1.7560999,2.2901 1.7327001,2.2323999 1.7232001,2.1709 1.7316997,2.1091999 1.7539999,2.0511 1.8065999,1.9869 1.8404,1.9625 1.8687999,1.9274 1.8983996,1.8667 1.9135997,1.7782 1.9058998,1.711 1.8796999,1.6487 1.7830999,1.5193 1.7407,1.4355 1.7185996,1.3442 1.7134998,1.2505z" fill="rgb(0,0,0)" shaper:cutDepth="0" shaper:pathType="exterior" transform="matrix(1,0,0,-1,11.9393008,2.4092)" vector-effect="non-scaling-stroke" /><path d="M-10.3709004,1.5095 L-10.3250005,1.5343 -10.2861006,1.5689 -10.2661002,1.5975 -10.2513006,1.6291 -10.2408001,1.6801 -10.2423003,1.7349 -10.2587001,1.7843 -10.3107002,1.8533 -10.3550999,1.8807 -10.4045002,1.8971 -10.4393003,1.9001 -11.9393008,1.9001 -11.9393008,2.4001 -10.1393001,2.4001 -10.0698001,2.3940001 -10.0025003,2.3759999 -9.9393003,2.3464999 -9.8822005,2.3065 -9.8329003,2.2572 -9.7929003,2.2001 -9.7634003,2.1369 -9.7453005,2.0695999 -9.7393005,2.0001 -9.7393005,1.3975 -9.7453005,1.328 -9.7634003,1.2607 -9.7929003,1.1975 -9.8329003,1.1404 -9.8822005,1.0911 -9.9393003,1.0511 -10.0025003,1.0216 -10.0698001,1.0035 -10.1393001,0.9975 -11.4393003,0.9975 -11.4393003,0 -11.9393008,0 -11.9393008,1.4975 -10.4393003,1.4975 -10.3709004,1.5095z" fill="rgb(0,0,0)" shaper:cutDepth="0" shaper:pathType="exterior" transform="matrix(1,0,0,-1,11.9393008,2.4092)" vector-effect="non-scaling-stroke" /><path d="M-7.0857003,0.2000999 L-7.0457001,0.1429999 -6.9964001,0.0936999 -6.9393003,0.0537 -6.8761003,0.0242 -6.8087003,0.0062 -6.7393003,0 -5.3393003,0 -5.2698003,0.0062 -5.2025002,0.0242 -5.1393002,0.0537 -5.0822002,0.0936999 -5.0329002,0.1429999 -4.9929003,0.2000999 -4.9634002,0.2632999 -4.9453002,0.3306999 -4.9393002,0.4000999 -4.9393002,2.4001 -5.4393002,2.4001 -5.4393002,0.5001 -6.6393003,0.5001 -6.6393003,2.4001 -7.1393003,2.4001 -7.1393003,0.4000999 -7.1332002,0.3306999 -7.1151001,0.2632999 -7.0857003,0.2000999z" fill="rgb(0,0,0)" shaper:cutDepth="0" shaper:pathType="exterior" transform="matrix(1,0,0,-1,11.9393008,2.4092)" vector-effect="non-scaling-stroke" /><path d="M-7.3541002,0 L-7.9337003,0 -8.5188,0.9975 -9.0393002,0.9975 -9.0393002,0 -9.5393002,0 -9.5393002,1.4975 -8.0393002,1.4975 -7.9877002,1.505 -7.9393003,1.5243 -7.8984001,1.5566 -7.8661005,1.5975 -7.8513,1.6291 -7.8400004,1.6901 -7.8423002,1.7349 -7.8587005,1.7843 -7.8861001,1.8287 -7.9107006,1.8533 -7.9551003,1.8807 -8.0045002,1.8971 -8.0393002,1.9001 -9.5393002,1.9001 -9.5393002,2.4001 -7.7393005,2.4001 -7.6698005,2.3940001 -7.6025002,2.3759999 -7.5393002,2.3464999 -7.4822004,2.3065 -7.4329004,2.2572 -7.3929002,2.2001 -7.3634005,2.1369 -7.3453004,2.0695999 -7.3393002,2.0001 -7.3393002,1.3975 -7.3453004,1.328 -7.3634005,1.2607 -7.3929002,1.1975 -7.4329004,1.1404 -7.4822004,1.0911 -7.5393002,1.0511 -7.6025002,1.0216 -7.6698005,1.0035 -7.7393005,0.9975 -7.9391005,0.9975 -7.3541002,0z" fill="rgb(0,0,0)" shaper:cutDepth="0" shaper:pathType="exterior" transform="matrix(1,0,0,-1,11.9393008,2.4092)" vector-effect="non-scaling-stroke" /></svg>